<?xml version="1.0" encoding="UTF-8" standalone="no"?>
<!DOCTYPE svg PUBLIC "-//W3C//DTD SVG 1.1//EN" "http://www.w3.org/Graphics/SVG/1.1/DTD/svg11.dtd">
<svg width="100%" height="100%" viewBox="0 0 96 96" version="1.1" xmlns="http://www.w3.org/2000/svg" xmlns:xlink="http://www.w3.org/1999/xlink" xml:space="preserve" xmlns:serif="http://www.serif.com/" style="fill-rule:evenodd;clip-rule:evenodd;stroke-miterlimit:2;">
    <g id="CPanel-icons-v2" serif:id="CPanel icons v2">
        <g id="Categories-v2" serif:id="Categories v2">
            <path d="M23.06,71.986L23.06,80.75C23.06,83.511 25.33,85.75 28.131,85.75C42.69,85.75 83.6,85.75 83.6,85.75M19.75,19.972C18.405,19.971 17.115,20.498 16.164,21.436C15.213,22.374 14.678,23.645 14.678,24.972C14.678,34.911 14.678,56.047 14.678,65.986C14.678,67.312 15.213,68.584 16.164,69.522C17.115,70.459 18.404,70.986 19.749,70.986C32.143,70.986 63.864,70.986 76.258,70.986C79.059,70.986 81.329,68.747 81.329,65.986C81.329,57.67 81.329,41.092 81.329,32.777C81.329,30.015 79.059,27.777 76.258,27.777C67.038,27.777 48.471,27.777 48.471,27.777L39.545,19.975C39.545,19.975 27.022,19.973 19.75,19.972Z" style="fill:none;stroke:rgb(114,149,177);stroke-width:4.5px;"/>
            <g>
                <g>
                    <path d="M29.886,60.48C28.934,60.48 28.105,60.132 27.397,59.435C26.69,58.738 26.337,57.92 26.337,56.98C26.337,56.041 26.69,55.223 27.397,54.525C28.105,53.828 28.934,53.48 29.886,53.48C30.838,53.48 31.668,53.828 32.376,54.525C33.082,55.223 33.436,56.041 33.436,56.98C33.436,57.92 33.082,58.738 32.376,59.435C31.668,60.132 30.838,60.48 29.886,60.48Z" style="fill:rgb(249,159,0);fill-rule:nonzero;"/>
                    <path d="M46.801,56.937L67.083,56.937" style="fill:none;stroke:rgb(249,159,0);stroke-width:5px;stroke-linecap:round;stroke-linejoin:round;stroke-miterlimit:1.5;"/>
                </g>
                <g>
                    <path d="M29.886,45.602C28.934,45.602 28.105,45.253 27.397,44.557C26.69,43.86 26.337,43.041 26.337,42.102C26.337,41.163 26.69,40.345 27.397,39.648C28.105,38.951 28.934,38.603 29.886,38.603C30.838,38.603 31.668,38.951 32.376,39.648C33.082,40.345 33.436,41.163 33.436,42.102C33.436,43.041 33.082,43.86 32.376,44.557C31.668,45.253 30.838,45.602 29.886,45.602Z" style="fill:rgb(249,159,0);fill-rule:nonzero;"/>
                    <path d="M46.801,42.044L67.083,42.044" style="fill:none;stroke:rgb(249,159,0);stroke-width:5px;stroke-linecap:round;stroke-linejoin:round;stroke-miterlimit:1.5;"/>
                </g>
            </g>
        </g>
    </g>
    <g id="_-Housekeeping-Icons" serif:id=" Housekeeping Icons">
    </g>
</svg>
