<?xml version="1.0" encoding="UTF-8" standalone="no"?>
<!DOCTYPE svg PUBLIC "-//W3C//DTD SVG 1.1//EN" "http://www.w3.org/Graphics/SVG/1.1/DTD/svg11.dtd">
<svg width="100%" height="100%" viewBox="0 0 96 96" version="1.1" xmlns="http://www.w3.org/2000/svg" xmlns:xlink="http://www.w3.org/1999/xlink" xml:space="preserve" xmlns:serif="http://www.serif.com/" style="fill-rule:evenodd;clip-rule:evenodd;stroke-linecap:round;stroke-miterlimit:10;">
    <g id="CPanel-icons-v2" serif:id="CPanel icons v2">
    </g>
    <g id="_-Housekeeping-Icons" serif:id=" Housekeeping Icons">
        <g id="Regenerate-Thumbnails">
            <path d="M16.05,75.931L16.05,85.477L25.596,85.477" style="fill:none;stroke:rgb(0,185,0);stroke-width:4.5px;"/>
            <path d="M16.05,85.477C20.925,80.602 32.027,69.5 32.027,69.5" style="fill:none;stroke:rgb(0,185,0);stroke-width:4.5px;stroke-linejoin:round;"/>
            <path d="M81.181,29.922L81.156,20.376L71.61,20.402" style="fill:none;stroke:rgb(0,185,0);stroke-width:4.5px;"/>
            <path d="M81.156,20.376C76.149,25.41 64.5,37.12 64.5,37.12" style="fill:none;stroke:rgb(0,185,0);stroke-width:4.5px;stroke-linejoin:bevel;"/>
            <g>
                <g>
                    <path d="M64.5,52.985L50.513,37.454L32.554,58.124L22.131,46.954L13.8,54.831" style="fill:none;stroke:rgb(246,157,0);stroke-width:4.5px;stroke-linecap:butt;stroke-linejoin:round;"/>
                    <circle cx="27.926" cy="31.309" r="4.302" style="fill:none;stroke:rgb(246,157,0);stroke-width:4.5px;stroke-linecap:butt;stroke-linejoin:round;"/>
                    <path d="M48,69.5L18.5,69.5C15.74,69.5 13.5,67.26 13.5,64.5L13.5,23.5C13.5,20.74 15.74,18.5 18.5,18.5L59.5,18.5C62.26,18.5 64.5,20.74 64.5,23.5L64.5,54" style="fill:none;stroke:rgb(114,149,177);stroke-width:4.5px;stroke-linecap:butt;stroke-linejoin:round;"/>
                </g>
            </g>
            <g>
                <path d="M82.64,78.077L73.289,67.404L61.822,80.737L55.167,73.532L48.64,79.766" style="fill:none;stroke:rgb(246,157,0);stroke-width:2.89px;stroke-linecap:butt;stroke-linejoin:round;"/>
                <ellipse cx="58.866" cy="63.44" rx="2.747" ry="2.775" style="fill:none;stroke:rgb(246,157,0);stroke-width:2.89px;stroke-linecap:butt;stroke-linejoin:round;"/>
                <path d="M82.64,58L82.64,84C82.64,86.208 80.847,88 78.64,88L52.64,88C50.432,88 48.64,86.208 48.64,84L48.64,58C48.64,55.792 50.432,54 52.64,54L78.64,54C80.847,54 82.64,55.792 82.64,58Z" style="fill:none;stroke:rgb(114,149,177);stroke-width:4px;stroke-linecap:butt;stroke-linejoin:round;"/>
            </g>
        </g>
    </g>
</svg>
