<?xml version="1.0" encoding="UTF-8" standalone="no"?>
<!DOCTYPE svg PUBLIC "-//W3C//DTD SVG 1.1//EN" "http://www.w3.org/Graphics/SVG/1.1/DTD/svg11.dtd">
<svg width="100%" height="100%" viewBox="0 0 96 96" version="1.1" xmlns="http://www.w3.org/2000/svg" xmlns:xlink="http://www.w3.org/1999/xlink" xml:space="preserve" xmlns:serif="http://www.serif.com/" style="fill-rule:evenodd;clip-rule:evenodd;stroke-linejoin:round;stroke-miterlimit:2;">
    <g id="weitere-Icons" serif:id="weitere Icons">
        <g>
            <g>
                <circle cx="48.014" cy="49.003" r="35.586" style="fill:rgb(114,149,177);"/>
                <path d="M16.078,49.003C16.078,56.12 18.359,62.598 22.283,67.89L20.823,57.762L16.078,49.003ZM22.922,29.202L27.119,28.199C30.678,22.998 35.696,20.26 40.258,19.439L33.05,24.457L40.167,22.724L45.277,19.895L43.817,17.34C35.422,18.435 27.94,22.815 22.922,29.202ZM27.575,48.911L30.586,54.933L39.528,55.755L44.364,74.004L50.295,74.004L57.048,65.792L56.683,60.682C59.602,58.401 61.884,55.572 62.796,51.922L58.234,53.017L52.303,43.71L53.671,42.798L59.511,51.01L65.26,45.991C62.249,45.626 60.241,44.167 59.42,41.612L69.822,43.254L73.563,50.919L75.205,40.699L79.859,46.174C78.673,32.67 69.001,21.538 56.226,18.162C56.226,21.264 54.493,23.819 52.029,25.279L48.744,23.363L42.448,27.012L44.638,29.111L48.014,25.096L47.376,30.023C43.269,30.023 41.262,30.662 38.707,32.031L38.16,34.586L35.331,33.947L34.145,37.141L36.609,37.871C37.977,36.137 39.072,35.042 41.718,34.403L44.456,37.414L42.813,37.962L43.817,38.783L45.277,37.049L43.178,34.13C45.277,34.13 46.463,35.407 47.193,38.601L50.934,33.126L55.496,35.042L55.04,36.228L49.657,36.684L49.657,38.692L53.763,38.966L52.485,42.25C45.003,42.25 42.813,42.068 41.262,38.692L35.057,38.327C30.495,41.064 28.214,44.623 27.575,48.911ZM36.426,30.023L40.076,30.936L40.076,27.286L36.426,30.023ZM56.683,33.582L58.507,32.578L60.971,37.688L59.329,38.053L56.683,33.582ZM57.686,69.989L59.329,70.628L62.066,64.332L58.599,66.522L57.686,69.989Z" style="fill:white;fill-rule:nonzero;"/>
            </g>
        </g>
    </g>
    <g id="Rahmen2" serif:id="Rahmen" opacity="0.47">
        <path id="Rahmen" d="M96,0L96,96L0,96L0,0L96,0ZM83.6,10.02L12.428,10.02L12.428,88L83.6,88L83.6,10.02Z" style="fill-opacity:0.33;"/>
        <path id="Rahmen1" serif:id="Rahmen" d="M96,0L96,96L0,96L0,0L96,0ZM81.3,12.3L14.678,12.3L14.678,85.732L81.3,85.732L81.3,12.3Z" style="fill-opacity:0.33;"/>
    </g>
</svg>
