<?xml version="1.0" encoding="UTF-8" standalone="no"?>
<!DOCTYPE svg PUBLIC "-//W3C//DTD SVG 1.1//EN" "http://www.w3.org/Graphics/SVG/1.1/DTD/svg11.dtd">
<svg width="100%" height="100%" viewBox="0 0 96 96" version="1.1" xmlns="http://www.w3.org/2000/svg" xmlns:xlink="http://www.w3.org/1999/xlink" xml:space="preserve" xmlns:serif="http://www.serif.com/" style="fill-rule:evenodd;clip-rule:evenodd;stroke-miterlimit:1.5;">
    <g id="Update">
        <path d="M58.93,52.594C58.93,58.803 53.85,63.844 47.592,63.844C41.334,63.844 36.253,58.803 36.253,52.594C36.253,46.385 41.334,41.344 47.592,41.344" style="fill:none;stroke:rgb(249,159,0);stroke-width:5.5px;"/>
        <path d="M47.316,87.467C37.648,87.467 29.417,84.07 22.622,77.276C15.826,70.482 12.428,62.257 12.428,52.601C12.428,42.945 15.826,34.718 22.622,27.919C29.417,21.12 37.643,17.721 47.302,17.721C53.65,17.721 59.275,19.103 64.175,21.866C69.075,24.629 73.197,28.409 76.542,33.208L76.542,17.721L81.817,17.721L81.817,43.939L55.599,43.939L55.599,38.662L73.966,38.662C71.171,33.954 67.502,30.166 62.959,27.298C58.417,24.431 53.198,22.997 47.302,22.997C39.028,22.997 32.027,25.861 26.298,31.589C20.568,37.317 17.704,44.317 17.704,52.588C17.704,60.86 20.57,67.862 26.302,73.594C32.035,79.325 39.041,82.191 47.318,82.191C53.62,82.191 59.37,80.388 64.569,76.782C69.766,73.176 73.397,68.41 75.46,62.484L80.923,62.484C78.765,69.995 74.581,76.037 68.372,80.609C62.164,85.181 55.145,87.467 47.316,87.467Z" style="fill:rgb(114,149,177);fill-rule:nonzero;"/>
    </g>
</svg>
