<?xml version="1.0" encoding="UTF-8" standalone="no"?>
<!DOCTYPE svg PUBLIC "-//W3C//DTD SVG 1.1//EN" "http://www.w3.org/Graphics/SVG/1.1/DTD/svg11.dtd">
<svg width="100%" height="100%" viewBox="0 0 96 96" version="1.1" xmlns="http://www.w3.org/2000/svg" xmlns:xlink="http://www.w3.org/1999/xlink" xml:space="preserve" xmlns:serif="http://www.serif.com/" style="fill-rule:evenodd;clip-rule:evenodd;stroke-miterlimit:2;">
    <g id="CPanel-icons-v2" serif:id="CPanel icons v2">
        <g id="help-v2" serif:id="help v2">
            <path d="M49.678,58.052L44.387,58.052C44.406,56.221 44.572,54.719 44.885,53.546C45.198,52.373 45.715,51.301 46.435,50.328C47.156,49.355 48.114,48.249 49.309,47.009C50.181,46.113 50.982,45.269 51.712,44.478C52.442,43.686 53.035,42.828 53.49,41.903C53.945,40.978 54.173,39.867 54.173,38.57C54.173,37.254 53.941,36.12 53.476,35.166C53.011,34.212 52.329,33.478 51.428,32.963C50.527,32.448 49.413,32.191 48.085,32.191C46.985,32.191 45.942,32.391 44.956,32.792C43.97,33.192 43.174,33.807 42.567,34.637C41.96,35.466 41.647,36.549 41.628,37.884L36.365,37.884C36.403,35.729 36.939,33.879 37.973,32.334C39.006,30.789 40.405,29.607 42.168,28.786C43.932,27.966 45.904,27.556 48.085,27.556C50.494,27.556 52.547,27.995 54.244,28.872C55.941,29.75 57.236,31.004 58.127,32.634C59.018,34.265 59.464,36.196 59.464,38.427C59.464,40.144 59.118,41.722 58.426,43.162C57.733,44.602 56.847,45.951 55.766,47.21C54.685,48.468 53.538,49.67 52.324,50.814C51.281,51.787 50.579,52.883 50.219,54.104C49.858,55.325 49.678,56.641 49.678,58.052ZM44.16,67.12C44.16,66.262 44.425,65.538 44.956,64.946C45.487,64.355 46.255,64.059 47.26,64.059C48.284,64.059 49.062,64.355 49.593,64.946C50.124,65.538 50.389,66.262 50.389,67.12C50.389,67.941 50.124,68.646 49.593,69.237C49.062,69.829 48.284,70.124 47.26,70.124C46.255,70.124 45.487,69.829 44.956,69.237C44.425,68.646 44.16,67.941 44.16,67.12Z" style="fill:rgb(246,157,0);fill-rule:nonzero;"/>
            <ellipse cx="48" cy="48.721" rx="35" ry="35.005" style="fill:none;stroke:rgb(114,149,177);stroke-width:4.5px;"/>
        </g>
    </g>
</svg>
