<?xml version="1.0" encoding="UTF-8" standalone="no"?>
<!DOCTYPE svg PUBLIC "-//W3C//DTD SVG 1.1//EN" "http://www.w3.org/Graphics/SVG/1.1/DTD/svg11.dtd">
<svg width="100%" height="100%" viewBox="0 0 96 96" version="1.1" xmlns="http://www.w3.org/2000/svg" xmlns:xlink="http://www.w3.org/1999/xlink" xml:space="preserve" xmlns:serif="http://www.serif.com/" style="fill-rule:evenodd;clip-rule:evenodd;stroke-linecap:round;stroke-linejoin:round;stroke-miterlimit:1.5;">
    <g id="Settings">
        <path d="M39.212,88.15L37.599,75.247C36.175,74.818 34.635,74.143 32.98,73.222C31.324,72.301 29.916,71.315 28.755,70.263L16.855,75.324L8.534,60.826L18.82,53.07C18.689,52.264 18.58,51.434 18.494,50.579C18.408,49.723 18.365,48.893 18.365,48.086C18.365,47.336 18.408,46.549 18.494,45.723C18.58,44.896 18.689,43.965 18.82,42.93L8.534,35.174L16.855,20.848L28.669,25.823C30.002,24.713 31.443,23.713 32.993,22.82C34.543,21.928 36.049,21.239 37.513,20.753L39.212,7.85L55.856,7.85L57.469,20.839C59.179,21.439 60.69,22.129 62.002,22.906C63.315,23.684 64.666,24.656 66.056,25.823L78.213,20.848L86.534,35.174L75.904,43.188C76.15,44.108 76.288,44.953 76.317,45.723C76.345,46.491 76.359,47.251 76.359,48C76.359,48.692 76.331,49.423 76.273,50.192C76.216,50.961 76.085,51.892 75.879,52.984L86.337,60.826L78.016,75.324L66.056,70.177C64.666,71.344 63.268,72.345 61.861,73.18C60.454,74.014 58.99,74.675 57.469,75.161L55.856,88.15L39.212,88.15ZM43.073,83.689L51.798,83.689L53.445,71.609C55.693,71.014 57.716,70.198 59.514,69.16C61.314,68.122 63.145,66.699 65.009,64.892L76.136,69.636L80.572,62.052L70.809,54.717C71.18,53.447 71.426,52.279 71.547,51.213C71.667,50.146 71.727,49.075 71.727,48C71.727,46.868 71.667,45.797 71.547,44.787C71.426,43.778 71.18,42.667 70.809,41.454L80.743,33.948L76.308,26.364L64.923,31.134C63.574,29.653 61.799,28.264 59.6,26.968C57.402,25.673 55.321,24.814 53.359,24.391L51.995,12.311L43.099,12.311L41.709,24.305C39.461,24.785 37.395,25.559 35.51,26.626C33.626,27.692 31.752,29.157 29.887,31.022L18.76,26.364L14.324,33.948L24.002,41.171C23.63,42.172 23.37,43.259 23.221,44.431C23.072,45.604 22.998,46.822 22.998,48.086C22.998,49.218 23.072,50.342 23.221,51.457C23.37,52.573 23.601,53.659 23.916,54.717L14.324,62.052L18.76,69.636L29.801,64.952C31.551,66.719 33.369,68.137 35.253,69.204C37.137,70.27 39.261,71.1 41.623,71.695L43.073,83.689Z" style="fill:rgb(114,149,177);fill-rule:nonzero;"/>
        <circle cx="47.534" cy="48" r="11.35" style="fill:none;stroke:rgb(246,157,0);stroke-width:4.2px;"/>
    </g>
</svg>
