<?xml version="1.0" encoding="UTF-8" standalone="no"?>
<!DOCTYPE svg PUBLIC "-//W3C//DTD SVG 1.1//EN" "http://www.w3.org/Graphics/SVG/1.1/DTD/svg11.dtd">
<svg width="100%" height="100%" viewBox="0 0 96 96" version="1.1" xmlns="http://www.w3.org/2000/svg" xmlns:xlink="http://www.w3.org/1999/xlink" xml:space="preserve" xmlns:serif="http://www.serif.com/" style="fill-rule:evenodd;clip-rule:evenodd;stroke-linecap:round;stroke-linejoin:round;stroke-miterlimit:1.5;">
    <g id="Settings">
        <path d="M39.212,92.15L37.599,79.247C36.175,78.818 34.635,78.143 32.98,77.222C31.324,76.301 29.916,75.315 28.755,74.263L16.855,79.324L8.534,64.826L18.82,57.07C18.689,56.264 18.58,55.434 18.494,54.579C18.408,53.723 18.365,52.893 18.365,52.086C18.365,51.336 18.408,50.549 18.494,49.723C18.58,48.896 18.689,47.965 18.82,46.93L8.534,39.174L16.855,24.848L28.669,29.823C30.002,28.713 31.443,27.713 32.993,26.82C34.543,25.928 36.049,25.239 37.513,24.753L39.212,11.85L55.856,11.85L57.469,24.839C59.179,25.439 60.69,26.129 62.002,26.906C63.315,27.684 64.666,28.656 66.056,29.823L78.213,24.848L86.534,39.174L75.904,47.188C76.15,48.108 76.288,48.953 76.317,49.723C76.345,50.491 76.359,51.251 76.359,52C76.359,52.692 76.331,53.423 76.273,54.192C76.216,54.961 76.085,55.892 75.879,56.984L86.337,64.826L78.016,79.324L66.056,74.177C64.666,75.344 63.268,76.345 61.861,77.18C60.454,78.014 58.99,78.675 57.469,79.161L55.856,92.15L39.212,92.15ZM43.073,87.689L51.798,87.689L53.445,75.609C55.693,75.014 57.716,74.198 59.514,73.16C61.314,72.122 63.145,70.699 65.009,68.892L76.136,73.636L80.572,66.052L70.809,58.717C71.18,57.447 71.426,56.279 71.547,55.213C71.667,54.146 71.727,53.075 71.727,52C71.727,50.868 71.667,49.797 71.547,48.787C71.426,47.778 71.18,46.667 70.809,45.454L80.743,37.948L76.308,30.364L64.923,35.134C63.574,33.653 61.799,32.264 59.6,30.968C57.402,29.673 55.321,28.814 53.359,28.391L51.995,16.311L43.099,16.311L41.709,28.305C39.461,28.785 37.395,29.559 35.51,30.626C33.626,31.692 31.752,33.157 29.887,35.022L18.76,30.364L14.324,37.948L24.002,45.171C23.63,46.172 23.37,47.259 23.221,48.431C23.072,49.604 22.998,50.822 22.998,52.086C22.998,53.218 23.072,54.342 23.221,55.457C23.37,56.573 23.601,57.659 23.916,58.717L14.324,66.052L18.76,73.636L29.801,68.952C31.551,70.719 33.369,72.137 35.253,73.204C37.137,74.27 39.261,75.1 41.623,75.695L43.073,87.689Z" style="fill:rgb(114,149,177);fill-rule:nonzero;"/>
        <circle cx="47.534" cy="52" r="11.35" style="fill:none;stroke:rgb(246,157,0);stroke-width:4.2px;"/>
    </g>
</svg>
