<?xml version="1.0" encoding="UTF-8" standalone="no"?>
<!DOCTYPE svg PUBLIC "-//W3C//DTD SVG 1.1//EN" "http://www.w3.org/Graphics/SVG/1.1/DTD/svg11.dtd">
<svg width="100%" height="100%" viewBox="0 0 96 96" version="1.1" xmlns="http://www.w3.org/2000/svg" xmlns:xlink="http://www.w3.org/1999/xlink" xml:space="preserve" xmlns:serif="http://www.serif.com/" style="fill-rule:evenodd;clip-rule:evenodd;stroke-linecap:round;stroke-linejoin:round;stroke-miterlimit:1.5;">
    <g id="Categories">
        <path id="Categries" d="M82.64,88L28.2,88C26.351,88 24.775,87.349 23.474,86.048C22.174,84.748 21.523,83.173 21.523,81.323L21.523,74.63L25.656,74.63L25.656,83.867L25.656,81.323C25.656,82.065 25.895,82.675 26.371,83.152C26.849,83.629 27.458,83.867 28.2,83.867L82.64,83.881L82.64,88Z" style="fill:rgb(114,149,177);"/>
        <path id="Categries1" serif:id="Categries" d="M12.428,29.552L12.428,24.392C12.428,22.544 13.078,20.97 14.378,19.67C15.678,18.37 17.252,17.721 19.1,17.721L39.588,17.721L47.846,25.98L75.957,25.98C77.805,25.98 79.379,26.629 80.679,27.929C81.979,29.229 82.628,30.803 82.628,32.651L82.628,67.909C82.628,69.757 81.979,71.33 80.679,72.63C79.379,73.93 77.805,74.58 75.957,74.58L19.1,74.58C17.252,74.58 15.678,73.93 14.378,72.63C13.078,71.33 12.428,69.757 12.428,67.909L12.428,29.552M19.1,70.45L75.957,70.45C76.699,70.45 77.308,70.212 77.785,69.736C78.261,69.259 78.499,68.65 78.499,67.909L78.499,32.651C78.499,31.909 78.261,31.3 77.785,30.823C77.308,30.347 76.699,30.109 75.957,30.109L46.186,30.109L37.928,21.85L19.1,21.85C18.358,21.85 17.749,22.088 17.272,22.565C16.796,23.042 16.558,23.651 16.558,24.392L16.558,67.909C16.558,68.65 16.796,69.259 17.272,69.736C17.749,70.212 18.358,70.45 19.1,70.45ZM16.558,70.45L16.558,21.85L16.558,70.45Z" style="fill:rgb(114,149,177);fill-rule:nonzero;"/>
        <g>
            <path d="M26.557,47.061C25.492,47.061 24.563,46.665 23.771,45.874C22.98,45.083 22.584,44.154 22.584,43.087C22.584,42.022 22.98,41.093 23.771,40.302C24.563,39.511 25.492,39.116 26.557,39.116C27.623,39.116 28.552,39.511 29.344,40.302C30.135,41.093 30.53,42.022 30.53,43.087C30.53,44.154 30.135,45.083 29.344,45.874C28.552,46.665 27.623,47.061 26.557,47.061ZM26.557,62.926C25.492,62.926 24.563,62.531 23.771,61.74C22.98,60.949 22.584,60.02 22.584,58.953C22.584,57.888 22.98,56.959 23.771,56.167C24.563,55.376 25.492,54.98 26.557,54.98C27.623,54.98 28.552,55.376 29.344,56.167C30.135,56.959 30.53,57.888 30.53,58.953C30.53,60.02 30.135,60.949 29.344,61.74C28.552,62.531 27.623,62.926 26.557,62.926Z" style="fill:rgb(249,159,0);fill-rule:nonzero;"/>
            <path d="M45.827,59.049L69.368,59.049" style="fill:none;stroke:rgb(249,159,0);stroke-width:5px;"/>
            <path d="M45.827,43.165L69.368,43.165" style="fill:none;stroke:rgb(249,159,0);stroke-width:5px;"/>
        </g>
    </g>
</svg>
