<?xml version="1.0" encoding="UTF-8" standalone="no"?>
<!DOCTYPE svg PUBLIC "-//W3C//DTD SVG 1.1//EN" "http://www.w3.org/Graphics/SVG/1.1/DTD/svg11.dtd">
<svg width="100%" height="100%" viewBox="0 0 96 96" version="1.1" xmlns="http://www.w3.org/2000/svg" xmlns:xlink="http://www.w3.org/1999/xlink" xml:space="preserve" xmlns:serif="http://www.serif.com/" style="fill-rule:evenodd;clip-rule:evenodd;stroke-miterlimit:1.5;">
    <g id="CPanel-icons-v2" serif:id="CPanel icons v2">
        <g id="Update">
            <path d="M59.338,51C59.338,57.264 54.258,62.35 48,62.35C41.742,62.35 36.662,57.264 36.662,51C36.662,44.736 41.742,39.65 48,39.65" style="fill:none;stroke:rgb(249,159,0);stroke-width:4.5px;"/>
            <path d="M83,50.968L83,51M83,51C83,70.317 67.317,86 48,86C28.683,86 13,70.317 13,51C13,31.683 28.683,16 48,16C61.325,16 72.92,23.462 78.832,34.432C79.812,36.25 80.636,38.165 81.285,40.158" style="fill:none;stroke:rgb(114,149,177);stroke-width:4.5px;stroke-miterlimit:2;"/>
            <path d="M82.457,22.8L82.457,41.848M65.543,39.694L82.457,39.694" style="fill:none;stroke:rgb(114,149,177);stroke-width:4.5px;stroke-miterlimit:2;"/>
            <g>
                <circle cx="81.166" cy="81.611" r="11.35" style="fill:rgb(0,185,0);stroke:rgb(0,185,0);stroke-width:4.5px;stroke-linecap:round;stroke-linejoin:round;"/>
                <path d="M89.492,73.217C89.492,73.614 89.228,73.925 88.699,74.152C86.783,74.963 84.683,77.064 82.398,80.453C80,84.012 78.315,87.708 77.343,91.54C77.201,92.069 76.928,92.333 76.522,92.333C76.22,92.333 76.017,92.05 75.913,91.484C75.705,90.313 75.2,89.043 74.398,87.675C73.633,86.372 72.92,85.489 72.259,85.027C71.844,84.734 71.485,84.588 71.183,84.588C70.862,84.588 70.508,84.753 70.121,85.083C69.923,85.31 69.687,85.272 69.413,84.97C69.243,84.725 69.243,84.498 69.413,84.29C69.762,83.941 70.315,83.403 71.07,82.676C71.41,82.374 71.74,82.223 72.061,82.223C72.269,82.223 72.538,82.284 72.868,82.407C73.501,82.662 74.152,83.139 74.822,83.837C75.559,84.621 76.097,85.47 76.437,86.386C76.54,86.698 76.644,87.014 76.748,87.335C76.824,87.552 76.904,87.66 76.989,87.66C77.064,87.66 77.121,87.575 77.159,87.406C77.215,87.094 77.267,86.882 77.315,86.768C78.721,83.049 80.435,79.797 82.455,77.012C84.664,73.982 86.594,72.467 88.246,72.467C89.077,72.467 89.492,72.717 89.492,73.217Z" style="fill:white;fill-rule:nonzero;"/>
            </g>
        </g>
    </g>
</svg>
