<?xml version="1.0" encoding="UTF-8" standalone="no"?>
<!DOCTYPE svg PUBLIC "-//W3C//DTD SVG 1.1//EN" "http://www.w3.org/Graphics/SVG/1.1/DTD/svg11.dtd">
<svg width="100%" height="100%" viewBox="0 0 96 96" version="1.1" xmlns="http://www.w3.org/2000/svg" xmlns:xlink="http://www.w3.org/1999/xlink" xml:space="preserve" xmlns:serif="http://www.serif.com/" style="fill-rule:evenodd;clip-rule:evenodd;stroke-linejoin:round;stroke-miterlimit:2;">
    <g id="Import">
        <path d="M18.504,88C16.818,88 15.384,87.409 14.201,86.227C13.019,85.045 12.428,83.61 12.428,81.925L12.428,57.721L16.804,57.721L16.804,81.925C16.804,82.6 16.765,82.864 17.134,83.233C17.503,83.602 17.829,83.624 18.504,83.624L76.564,83.624C77.239,83.624 77.549,83.631 77.934,83.233C78.319,82.835 78.264,82.6 78.264,81.925L78.264,23.864C78.264,23.189 78.411,23.01 77.934,22.533C77.457,22.056 77.239,22.165 76.564,22.165L18.504,22.165C17.829,22.165 17.472,22.195 17.134,22.533C16.796,22.87 16.804,23.189 16.804,23.864L16.804,32.068L12.428,32.068L12.428,23.864C12.428,22.179 13.019,20.744 14.201,19.562C15.384,18.38 16.818,17.789 18.504,17.789L76.564,17.789C78.25,17.789 79.684,18.38 80.867,19.562C82.049,20.744 82.64,22.179 82.64,23.864L82.64,81.925C82.64,83.61 82.049,85.045 80.867,86.227C79.684,87.409 78.25,88 76.564,88L18.504,88Z" style="fill:rgb(114,149,177);fill-rule:nonzero;"/>
        <path id="Arrow" d="M42.574,60.937L39.214,57.687L50.215,46.684L12.428,46.684L12.428,42.278L50.215,42.278L39.214,31.275L42.574,28.025L59.03,44.481L42.574,60.937Z" style="fill:rgb(114,149,177);fill-rule:nonzero;"/>
        <path d="M68.394,35.928C67.328,35.928 66.4,35.533 65.608,34.742C64.817,33.951 64.421,33.022 64.421,31.955C64.421,30.89 64.817,29.961 65.608,29.17C66.4,28.379 67.328,27.983 68.394,27.983C69.46,27.983 70.389,28.379 71.181,29.17C71.972,29.961 72.367,30.89 72.367,31.955C72.367,33.022 71.972,33.951 71.181,34.742C70.389,35.533 69.46,35.928 68.394,35.928ZM68.394,49.794C67.328,49.794 66.4,49.399 65.608,48.608C64.817,47.816 64.421,46.888 64.421,45.821C64.421,44.755 64.817,43.827 65.608,43.035C66.4,42.243 67.328,41.848 68.394,41.848C69.46,41.848 70.389,42.243 71.181,43.035C71.972,43.827 72.367,44.755 72.367,45.821C72.367,46.888 71.972,47.816 71.181,48.608C70.389,49.399 69.46,49.794 68.394,49.794ZM68.394,63.561C67.328,63.561 66.4,63.165 65.608,62.374C64.817,61.583 64.421,60.654 64.421,59.587C64.421,58.522 64.817,57.593 65.608,56.802C66.4,56.011 67.328,55.616 68.394,55.616C69.46,55.616 70.389,56.011 71.181,56.802C71.972,57.593 72.367,58.522 72.367,59.587C72.367,60.654 71.972,61.583 71.181,62.374C70.389,63.165 69.46,63.561 68.394,63.561ZM68.394,77.426C67.328,77.426 66.4,77.031 65.608,76.24C64.817,75.449 64.421,74.52 64.421,73.453C64.421,72.388 64.817,71.459 65.608,70.667C66.4,69.876 67.328,69.48 68.394,69.48C69.46,69.48 70.389,69.876 71.181,70.667C71.972,71.459 72.367,72.388 72.367,73.453C72.367,74.52 71.972,75.449 71.181,76.24C70.389,77.031 69.46,77.426 68.394,77.426Z" style="fill:rgb(249,159,0);"/>
    </g>
</svg>
