<?xml version="1.0" encoding="UTF-8" standalone="no"?>
<!DOCTYPE svg PUBLIC "-//W3C//DTD SVG 1.1//EN" "http://www.w3.org/Graphics/SVG/1.1/DTD/svg11.dtd">
<svg width="100%" height="100%" viewBox="0 0 96 96" version="1.1" xmlns="http://www.w3.org/2000/svg" xmlns:xlink="http://www.w3.org/1999/xlink" xml:space="preserve" xmlns:serif="http://www.serif.com/" style="fill-rule:evenodd;clip-rule:evenodd;stroke-linejoin:round;stroke-miterlimit:2;">
    <g id="export">
        <g>
            <path d="M26.589,35.928C25.523,35.928 24.594,35.533 23.802,34.742C23.011,33.951 22.616,33.022 22.616,31.955C22.616,30.89 23.011,29.961 23.802,29.17C24.594,28.379 25.523,27.983 26.589,27.983C27.655,27.983 28.584,28.379 29.375,29.17C30.167,29.961 30.562,30.89 30.562,31.955C30.562,33.022 30.167,33.951 29.375,34.742C28.584,35.533 27.655,35.928 26.589,35.928ZM26.589,49.794C25.523,49.794 24.594,49.399 23.802,48.608C23.011,47.816 22.616,46.888 22.616,45.821C22.616,44.755 23.011,43.827 23.802,43.035C24.594,42.243 25.523,41.848 26.589,41.848C27.655,41.848 28.584,42.243 29.375,43.035C30.167,43.827 30.562,44.755 30.562,45.821C30.562,46.888 30.167,47.816 29.375,48.608C28.584,49.399 27.655,49.794 26.589,49.794ZM26.589,63.561C25.523,63.561 24.594,63.165 23.802,62.374C23.011,61.583 22.616,60.654 22.616,59.587C22.616,58.522 23.011,57.593 23.802,56.802C24.594,56.011 25.523,55.616 26.589,55.616C27.655,55.616 28.584,56.011 29.375,56.802C30.167,57.593 30.562,58.522 30.562,59.587C30.562,60.654 30.167,61.583 29.375,62.374C28.584,63.165 27.655,63.561 26.589,63.561ZM26.589,77.426C25.523,77.426 24.594,77.031 23.802,76.24C23.011,75.449 22.616,74.52 22.616,73.453C22.616,72.388 23.011,71.459 23.802,70.667C24.594,69.876 25.523,69.48 26.589,69.48C27.655,69.48 28.584,69.876 29.375,70.667C30.167,71.459 30.562,72.388 30.562,73.453C30.562,74.52 30.167,75.449 29.375,76.24C28.584,77.031 27.655,77.426 26.589,77.426Z" style="fill:rgb(249,159,0);"/>
        </g>
        <path d="M76.564,88C78.25,88 79.684,87.409 80.867,86.227C82.049,85.045 82.64,83.61 82.64,81.925L82.64,73.337L78.264,77.622L78.264,81.925C78.264,82.6 78.303,82.864 77.934,83.233C77.565,83.602 77.239,83.624 76.564,83.624L18.504,83.624C17.829,83.624 17.519,83.631 17.134,83.233C16.749,82.835 16.804,82.6 16.804,81.925L16.804,23.864C16.804,23.189 16.657,23.01 17.134,22.533C17.611,22.056 17.829,22.165 18.504,22.165L76.564,22.165C77.239,22.165 77.596,22.195 77.934,22.533C78.272,22.87 78.264,23.189 78.264,23.864L78.264,41.846L82.64,45.889L82.64,23.864C82.64,22.179 82.049,20.744 80.867,19.562C79.684,18.38 78.25,17.789 76.564,17.789L18.504,17.789C16.818,17.789 15.384,18.38 14.201,19.562C13.019,20.744 12.428,22.179 12.428,23.864L12.428,81.925C12.428,83.61 13.019,85.045 14.201,86.227C15.384,87.409 16.818,88 18.504,88L76.564,88Z" style="fill:rgb(114,149,177);fill-rule:nonzero;"/>
        <path id="Arrow" d="M73.573,76.026L70.212,72.776L81.213,61.773L43.427,61.773L43.427,57.367L81.213,57.367L70.212,46.365L73.573,43.114L90.028,59.57L73.573,76.026Z" style="fill:rgb(114,149,177);fill-rule:nonzero;"/>
    </g>
</svg>
