<?xml version="1.0" encoding="UTF-8" standalone="no"?>
<!DOCTYPE svg PUBLIC "-//W3C//DTD SVG 1.1//EN" "http://www.w3.org/Graphics/SVG/1.1/DTD/svg11.dtd">
<svg width="100%" height="100%" viewBox="0 0 96 96" version="1.1" xmlns="http://www.w3.org/2000/svg" xmlns:xlink="http://www.w3.org/1999/xlink" xml:space="preserve" xmlns:serif="http://www.serif.com/" style="fill-rule:evenodd;clip-rule:evenodd;stroke-linejoin:round;stroke-miterlimit:2;">
    <g id="Group">
        <path id="Pers-1" serif:id="Pers 1" d="M12.428,88L12.428,63.287C12.428,61.464 12.9,59.897 13.844,58.586C14.787,57.275 16.056,56.228 17.648,55.443C21.054,53.822 24.435,52.529 27.792,51.565C31.15,50.601 35.189,50.119 39.911,50.119C44.632,50.119 48.672,50.601 52.029,51.565C55.387,52.529 58.768,53.822 62.173,55.443C63.766,56.228 65.034,57.275 65.978,58.586C66.922,59.897 67.394,61.464 67.394,63.287L67.394,88L12.428,88ZM39.911,41.36C36.672,41.36 33.899,40.207 31.593,37.9C29.286,35.594 28.133,32.821 28.133,29.582C28.133,26.343 29.286,23.57 31.593,21.263C33.899,18.957 36.672,17.804 39.911,17.804C43.15,17.804 45.923,18.957 48.23,21.263C50.536,23.57 51.69,26.343 51.69,29.582C51.69,32.821 50.536,35.594 48.23,37.9C45.923,40.207 43.15,41.36 39.911,41.36ZM16.355,84.326L63.468,84.326L63.468,63.287C63.468,62.365 63.237,61.56 62.777,60.87C62.316,60.181 61.489,59.522 60.297,58.892C57.367,57.327 54.279,56.128 51.032,55.295C47.786,54.462 44.079,54.045 39.911,54.045C35.743,54.045 32.036,54.462 28.79,55.295C25.543,56.128 22.454,57.327 19.525,58.892C18.332,59.522 17.505,60.181 17.045,60.87C16.585,61.56 16.355,62.365 16.355,63.287L16.355,84.326ZM39.911,37.434C42.071,37.434 43.919,36.665 45.457,35.128C46.995,33.59 47.763,31.741 47.763,29.582C47.763,27.423 46.995,25.574 45.457,24.036C43.919,22.499 42.071,21.73 39.911,21.73C37.752,21.73 35.903,22.499 34.366,24.036C32.828,25.574 32.059,27.423 32.059,29.582C32.059,31.741 32.828,33.59 34.366,35.128C35.903,36.665 37.752,37.434 39.911,37.434Z" style="fill:rgb(246,157,0);fill-rule:nonzero;"/>
        <path id="Pers-11" serif:id="Pers 1" d="M62.455,50.574C64.193,50.811 65.8,51.142 67.275,51.565C70.632,52.529 74.014,53.822 77.419,55.443C79.011,56.228 80.28,57.275 81.223,58.586C82.167,59.897 82.64,61.464 82.64,63.287L82.64,88L71.591,88L71.591,60.694C71.591,58.598 70.374,56.81 69.274,55.302C68.175,53.794 66.698,52.589 64.843,51.686C64.021,51.3 63.229,50.929 62.455,50.574ZM50.642,18.349C51.527,18.132 52.451,18.017 53.402,18.017C59.787,18.017 64.971,23.201 64.971,29.586C64.971,35.971 59.787,41.155 53.402,41.155C52.451,41.155 51.527,41.04 50.642,40.823C54.016,37.898 56.089,33.94 56.089,29.586C56.089,25.232 54.016,21.274 50.642,18.349Z" style="fill:rgb(114,149,177);"/>
    </g>
</svg>
