<?xml version="1.0" encoding="UTF-8" standalone="no"?>
<!DOCTYPE svg PUBLIC "-//W3C//DTD SVG 1.1//EN" "http://www.w3.org/Graphics/SVG/1.1/DTD/svg11.dtd">
<svg width="100%" height="100%" viewBox="0 0 96 96" version="1.1" xmlns="http://www.w3.org/2000/svg" xmlns:xlink="http://www.w3.org/1999/xlink" xml:space="preserve" xmlns:serif="http://www.serif.com/" style="fill-rule:evenodd;clip-rule:evenodd;stroke-linecap:round;stroke-linejoin:round;stroke-miterlimit:1.5;">
    <g id="Categoriesedit">
        <g>
            <path id="Categries" d="M72.004,88L28.2,88C26.351,88 24.775,87.349 23.474,86.048C22.174,84.748 21.523,83.173 21.523,81.323L21.523,74.63L25.656,74.63L25.656,83.867L25.656,81.323C25.656,82.065 25.895,82.675 26.371,83.152C26.849,83.629 27.458,83.867 28.2,83.867L72.01,83.878L72.004,88Z" style="fill:rgb(114,149,177);"/>
            <path id="Categries1" serif:id="Categries" d="M12.428,29.554L12.428,24.393C12.428,22.545 13.078,20.97 14.378,19.67C15.678,18.371 17.252,17.721 19.101,17.721L39.592,17.721L47.852,25.981L75.967,25.981C77.816,25.981 79.39,26.631 80.69,27.93C81.99,29.231 82.64,30.805 82.64,32.653L82.64,68.493L72.226,74.589L19.101,74.589C17.252,74.589 15.678,73.938 14.378,72.638C13.078,71.339 12.428,69.765 12.428,67.917L12.428,29.554M19.101,70.459L73.683,70.459L78.509,68.441L78.509,32.653C78.509,31.912 78.271,31.302 77.795,30.825C77.318,30.349 76.709,30.111 75.967,30.111L46.192,30.111L37.932,21.851L19.101,21.851C18.359,21.851 17.75,22.089 17.273,22.565C16.797,23.042 16.559,23.652 16.559,24.393L16.559,67.917C16.559,68.658 16.797,69.267 17.273,69.744C17.75,70.22 18.359,70.459 19.101,70.459ZM16.559,70.459L16.559,21.851L16.559,70.459Z" style="fill:rgb(114,149,177);fill-rule:nonzero;"/>
            <g>
                <path d="M26.557,47.061C25.492,47.061 24.563,46.665 23.771,45.874C22.98,45.083 22.584,44.154 22.584,43.087C22.584,42.022 22.98,41.093 23.771,40.302C24.563,39.511 25.492,39.116 26.557,39.116C27.623,39.116 28.552,39.511 29.344,40.302C30.135,41.093 30.53,42.022 30.53,43.087C30.53,44.154 30.135,45.083 29.344,45.874C28.552,46.665 27.623,47.061 26.557,47.061ZM26.557,62.926C25.492,62.926 24.563,62.531 23.771,61.74C22.98,60.949 22.584,60.02 22.584,58.953C22.584,57.888 22.98,56.959 23.771,56.167C24.563,55.376 25.492,54.98 26.557,54.98C27.623,54.98 28.552,55.376 29.344,56.167C30.135,56.959 30.53,57.888 30.53,58.953C30.53,60.02 30.135,60.949 29.344,61.74C28.552,62.531 27.623,62.926 26.557,62.926Z" style="fill:rgb(249,159,0);fill-rule:nonzero;"/>
                <path d="M45.827,59.049L69.368,59.049" style="fill:none;stroke:rgb(249,159,0);stroke-width:5px;"/>
                <path d="M45.827,43.165L69.368,43.165" style="fill:none;stroke:rgb(249,159,0);stroke-width:5px;"/>
            </g>
        </g>
        <g>
            <path d="M81.663,68.196C89.067,68.196 95.078,74.207 95.078,81.611C95.078,89.015 89.067,95.026 81.663,95.026C74.26,95.026 68.249,89.015 68.249,81.611C68.249,74.207 74.26,68.196 81.663,68.196ZM81.663,72.196C76.467,72.196 72.249,76.415 72.249,81.611C72.249,86.807 76.467,91.026 81.663,91.026C86.86,91.026 91.078,86.807 91.078,81.611C91.078,76.415 86.86,72.196 81.663,72.196Z" style="fill:rgb(0,185,0);"/>
            <g transform="matrix(27,0,0,27,89.5051,91.1059)">
            </g>
            <text x="73.737px" y="91.106px" style="font-family:'Arial-BoldMT', 'Arial', sans-serif;font-weight:700;font-size:27px;fill:rgb(0,185,0);">+</text>
        </g>
    </g>
</svg>
