<?xml version="1.0" encoding="UTF-8" standalone="no"?>
<!DOCTYPE svg PUBLIC "-//W3C//DTD SVG 1.1//EN" "http://www.w3.org/Graphics/SVG/1.1/DTD/svg11.dtd">
<svg width="100%" height="100%" viewBox="0 0 96 96" version="1.1" xmlns="http://www.w3.org/2000/svg" xmlns:xlink="http://www.w3.org/1999/xlink" xml:space="preserve" xmlns:serif="http://www.serif.com/" style="fill-rule:evenodd;clip-rule:evenodd;stroke-miterlimit:2;">
    <g id="weitere-Icons" serif:id="weitere Icons">
        <g>
            <g id="icon-48-unknown-version">
                <g id="Update">
                    <path d="M82,50.969C82,50.979 82,50.99 82,51M82,51C82,69.765 66.765,85 48,85C29.235,85 14,69.765 14,51C14,32.235 29.235,17 48,17C60.944,17 72.208,24.249 77.951,34.905C78.903,36.672 79.703,38.531 80.334,40.467" style="fill:none;stroke:rgb(114,149,177);stroke-width:4.5px;"/>
                    <path d="M81.3,20.65L81.3,39.65L62.3,39.65" style="fill:none;stroke:rgb(114,149,177);stroke-width:4.5px;"/>
                </g>
                <path d="M49.432,58.603L44.917,58.603C44.933,57.041 45.075,55.759 45.342,54.758C45.609,53.757 46.05,52.842 46.665,52.012C47.28,51.181 48.097,50.237 49.117,49.18C49.861,48.415 50.545,47.694 51.168,47.019C51.791,46.343 52.297,45.611 52.685,44.822C53.074,44.032 53.268,43.084 53.268,41.977C53.268,40.854 53.07,39.886 52.673,39.072C52.277,38.258 51.694,37.632 50.925,37.192C50.157,36.753 49.206,36.533 48.073,36.533C47.134,36.533 46.244,36.704 45.402,37.046C44.561,37.388 43.881,37.912 43.363,38.62C42.845,39.328 42.578,40.252 42.562,41.391L38.071,41.391C38.103,39.552 38.56,37.973 39.442,36.655C40.325,35.337 41.518,34.328 43.023,33.628C44.528,32.928 46.212,32.578 48.073,32.578C50.128,32.578 51.88,32.952 53.329,33.701C54.777,34.45 55.882,35.52 56.642,36.911C57.403,38.303 57.783,39.951 57.783,41.855C57.783,43.32 57.488,44.667 56.897,45.896C56.307,47.125 55.55,48.276 54.628,49.35C53.705,50.425 52.726,51.45 51.69,52.427C50.8,53.257 50.201,54.193 49.894,55.234C49.586,56.276 49.432,57.399 49.432,58.603ZM44.723,66.343C44.723,65.61 44.949,64.992 45.402,64.487C45.856,63.983 46.511,63.73 47.369,63.73C48.243,63.73 48.906,63.983 49.359,64.487C49.813,64.992 50.039,65.61 50.039,66.343C50.039,67.043 49.813,67.645 49.359,68.149C48.906,68.654 48.243,68.906 47.369,68.906C46.511,68.906 45.856,68.654 45.402,68.149C44.949,67.645 44.723,67.043 44.723,66.343Z" style="fill:rgb(246,157,0);fill-rule:nonzero;"/>
            </g>
        </g>
    </g>
</svg>
