<?xml version="1.0" encoding="UTF-8" standalone="no"?>
<!DOCTYPE svg PUBLIC "-//W3C//DTD SVG 1.1//EN" "http://www.w3.org/Graphics/SVG/1.1/DTD/svg11.dtd">
<svg width="100%" height="100%" viewBox="0 0 96 96" version="1.1" xmlns="http://www.w3.org/2000/svg" xmlns:xlink="http://www.w3.org/1999/xlink" xml:space="preserve" xmlns:serif="http://www.serif.com/" style="fill-rule:evenodd;clip-rule:evenodd;stroke-miterlimit:2;">
    <g id="CPanel-icons-v2" serif:id="CPanel icons v2">
        <g id="import-v2" serif:id="import v2">
            <g>
                <path d="M14.678,32.245L14.678,24.971C14.678,22.209 16.948,19.971 19.747,19.971L76.232,19.971C79.031,19.971 81.3,22.209 81.3,24.971L81.3,80.732C81.3,83.493 79.031,85.732 76.232,85.732L19.747,85.732C16.948,85.732 14.678,83.493 14.678,80.732L14.678,57.748" style="fill:none;stroke:rgb(114,149,177);stroke-width:4.5px;"/>
                <path d="M69.394,35.602C68.455,35.602 67.637,35.253 66.94,34.556C66.243,33.859 65.894,33.041 65.894,32.102C65.894,31.163 66.243,30.345 66.94,29.648C67.637,28.951 68.455,28.603 69.394,28.603C70.333,28.603 71.151,28.951 71.849,29.648C72.546,30.345 72.894,31.163 72.894,32.102C72.894,33.041 72.546,33.859 71.849,34.556C71.151,35.253 70.333,35.602 69.394,35.602ZM69.394,49.467C68.455,49.467 67.637,49.119 66.94,48.422C66.243,47.725 65.894,46.907 65.894,45.967C65.894,45.029 66.243,44.21 66.94,43.513C67.637,42.816 68.455,42.467 69.394,42.467C70.333,42.467 71.151,42.816 71.849,43.513C72.546,44.21 72.894,45.029 72.894,45.967C72.894,46.907 72.546,47.725 71.849,48.422C71.151,49.119 70.333,49.467 69.394,49.467ZM69.394,63.234C68.455,63.234 67.637,62.885 66.94,62.189C66.243,61.492 65.894,60.673 65.894,59.734C65.894,58.795 66.243,57.977 66.94,57.28C67.637,56.583 68.455,56.235 69.394,56.235C70.333,56.235 71.151,56.583 71.849,57.28C72.546,57.977 72.894,58.795 72.894,59.734C72.894,60.673 72.546,61.492 71.849,62.189C71.151,62.885 70.333,63.234 69.394,63.234ZM69.394,77.1C68.455,77.1 67.637,76.751 66.94,76.054C66.243,75.357 65.894,74.539 65.894,73.6C65.894,72.661 66.243,71.843 66.94,71.145C67.637,70.448 68.455,70.1 69.394,70.1C70.333,70.1 71.151,70.448 71.849,71.145C72.546,71.843 72.894,72.661 72.894,73.6C72.894,74.539 72.546,75.357 71.849,76.054C71.151,76.751 70.333,77.1 69.394,77.1Z" style="fill:rgb(249,159,0);"/>
                <path d="M12.428,44.481L55.256,44.53M40.841,29.615L55.306,44.481L40.871,58.5" style="fill:none;stroke:rgb(114,149,177);stroke-width:4.5px;"/>
            </g>
        </g>
    </g>
    <g id="_-Housekeeping-Icons" serif:id=" Housekeeping Icons">
    </g>
</svg>
