<?xml version="1.0" encoding="UTF-8" standalone="no"?><!DOCTYPE svg PUBLIC "-//W3C//DTD SVG 1.1//EN" "http://www.w3.org/Graphics/SVG/1.1/DTD/svg11.dtd"><svg width="96px" height="96px" version="1.1" xmlns="http://www.w3.org/2000/svg" xmlns:xlink="http://www.w3.org/1999/xlink" xml:space="preserve" xmlns:serif="http://www.serif.com/" style="fill-rule:evenodd;clip-rule:evenodd;stroke-miterlimit:1.5;"><g id="v1"></g><g id="final"><g id="Housekeeping-v2" serif:id="Housekeeping v2"><path d="M38.808,46.035L38.855,51.991C38.855,56.426 35.254,60.026 30.82,60.026C26.386,60.026 22.786,56.426 22.786,51.991L22.786,46.035" style="fill:none;stroke:rgb(114,149,177);stroke-width:4px;"/><circle cx="42.727" cy="25.995" r="4.024" style="fill:rgb(114,149,177);"/><circle cx="22.723" cy="16.986" r="7.986" style="fill:rgb(114,149,177);"/><g><path d="M63.893,86.002L79.823,86.002C81.05,86.002 82.209,85.439 82.967,84.474C83.726,83.509 83.999,82.25 83.71,81.058C81.954,73.833 78.895,61.243 78.895,61.243C78.895,61.243 78.602,56.856 78.333,52.837C78.087,49.161 75.033,46.305 71.348,46.305C68.54,46.305 60.965,46.305 58.501,46.305M77.895,61.243L49.819,61.243M69.839,86.002L69.839,73.386M50.083,50.369C51.197,47.958 53.635,46.305 56.439,46.305C58.965,46.305 61.258,46.305 61.258,46.305M49.932,61.243L78.008,61.243M57.988,86.002L57.988,73.386M63.893,86.002L47.964,86.002C46.737,86.002 45.578,85.439 44.819,84.474" style="fill:none;stroke:rgb(246,157,0);stroke-width:4px;stroke-linecap:round;stroke-miterlimit:2;"/><path d="M64.321,45.135L64.321,7.147" style="fill:none;stroke:rgb(246,157,0);stroke-width:4.5px;stroke-linecap:round;"/></g><path d="M51.924,38.02C51.924,38.02 47.969,69.563 46.491,81.353C46.177,83.854 44.051,85.731 41.531,85.731C35.807,85.733 25.878,85.735 20.154,85.737C17.633,85.737 15.506,83.861 15.192,81.36C13.709,69.568 9.741,38.02 9.741,38.02L51.924,38.02Z" style="fill:none;stroke:rgb(114,149,177);stroke-width:4.5px;stroke-miterlimit:2;"/></g></g></svg>