<?xml version="1.0" encoding="UTF-8" standalone="no"?>
<!DOCTYPE svg PUBLIC "-//W3C//DTD SVG 1.1//EN" "http://www.w3.org/Graphics/SVG/1.1/DTD/svg11.dtd">
<svg width="100%" height="100%" viewBox="0 0 96 96" version="1.1" xmlns="http://www.w3.org/2000/svg" xmlns:serif="http://www.serif.com/" xml:space="preserve" style="fill-rule:evenodd;clip-rule:evenodd;stroke-linecap:round;stroke-linejoin:round;stroke-miterlimit:2;">
    <g id="_-Housekeeping-Icons" serif:id=" Housekeeping Icons">
        <g id="Cleanup-unused-attachment-files" serif:id="Cleanup unused attachment files">
            <path d="M20.806,13.972L55.806,13.972L69.806,27.972L69.806,76.75C69.806,79.511 67.567,81.75 64.806,81.75L20.806,81.75C18.044,81.75 15.806,79.511 15.806,76.75L15.806,18.972C15.806,16.211 18.044,13.972 20.806,13.972Z" style="fill:none;stroke:rgb(114,149,177);stroke-width:4.5px;"/>
            <path d="M55.806,14.472L55.806,27.972L69.306,27.972" style="fill:none;stroke:rgb(114,149,177);stroke-width:4.5px;stroke-linecap:square;"/>
            <path d="M29.806,40.478L49.806,40.478M29.806,52.478L43.806,52.478" style="fill:none;stroke:rgb(246,157,0);stroke-width:4.5px;"/>
            <path d="M42.042,72.222L57.324,56.94C60.838,53.426 66.553,53.426 70.067,56.94C73.581,60.454 73.581,66.169 70.067,69.683L54.186,85.564C49.366,90.385 41.523,90.385 36.702,85.564C31.882,80.743 31.882,72.9 36.702,68.08L52.689,52.093" style="fill:none;stroke:rgb(114,149,177);stroke-width:4.5px;"/>
            <path d="M48.988,75.963L64.196,60.755C65.609,59.342 67.907,59.342 69.321,60.755C70.735,62.169 70.735,64.467 69.321,65.881L53.44,81.762C50.717,84.485 46.288,84.485 43.565,81.762C40.842,79.039 40.842,74.61 43.565,71.887L59.553,55.899" style="fill:none;stroke:rgb(246,157,0);stroke-width:4.5px;"/>
            <path d="M70.475,58.618L92.312,58.618" style="fill:none;stroke:rgb(225,0,26);stroke-width:3.5px;stroke-linejoin:miter;stroke-miterlimit:2;"/>
            <path d="M76.825,56.883L86.118,56.883" style="fill:none;stroke:rgb(225,0,26);stroke-width:3.5px;stroke-linejoin:miter;stroke-miterlimit:2;"/>
            <path d="M73.162,58.618L73.162,86.219C73.162,87.323 74.057,88.218 75.161,88.219C78.335,88.221 84.452,88.225 87.626,88.227C88.73,88.228 89.626,87.333 89.626,86.229L89.626,58.618" style="fill:none;stroke:rgb(225,0,26);stroke-width:3.5px;stroke-linejoin:miter;stroke-miterlimit:2;"/>
            <path d="M77.018,68.174L85.744,76.9M77.018,76.9L85.744,68.174" style="fill:none;stroke:rgb(225,0,26);stroke-width:3.5px;stroke-linejoin:miter;stroke-miterlimit:2;"/>
        </g>
    </g>
</svg>
