<?xml version="1.0" encoding="UTF-8" standalone="no"?><!DOCTYPE svg PUBLIC "-//W3C//DTD SVG 1.1//EN" "http://www.w3.org/Graphics/SVG/1.1/DTD/svg11.dtd"><svg width="96px" height="96px" version="1.1" xmlns="http://www.w3.org/2000/svg" xmlns:xlink="http://www.w3.org/1999/xlink" xml:space="preserve" xmlns:serif="http://www.serif.com/" style="fill-rule:evenodd;clip-rule:evenodd;stroke-linecap:round;stroke-miterlimit:2;"><g id="v1"></g><g id="final"><g id="Groupedit-v2" serif:id="Groupedit v2"><circle cx="40.911" cy="29.575" r="9.5" style="fill:none;stroke:rgb(246,157,0);stroke-width:4.5px;"/><path d="M67.262,65.475L67.262,85.75L14.678,85.75L14.678,65.475M14.678,63.376C14.662,56.904 28.316,52.197 40.97,52.196C53.581,52.196 67.192,56.88 67.262,63.582" style="fill:none;stroke:rgb(246,157,0);stroke-width:4.5px;stroke-linecap:square;"/><path id="Pers-2" serif:id="Pers 2" d="M51.642,18.349C52.527,18.132 52.451,18.017 53.402,18.017C59.787,18.017 64.971,23.201 64.971,29.586C64.971,35.971 59.787,41.155 53.402,41.155C52.451,41.155 52.527,41.04 51.642,40.823C55.016,37.898 57.089,33.94 57.089,29.586C57.089,25.232 55.016,21.274 51.642,18.349Z" style="fill:rgb(114,149,177);"/><path d="M74.126,71.031C74.126,71.031 74.139,63.768 74.126,63.173C74.078,60.94 73.343,59.136 72.598,58.108C70.655,55.424 70.186,54.126 65.578,51.17L70.953,52.604C74.9,53.953 78.142,55.786 80.137,57.892C81.674,59.514 82.531,61.32 82.639,63.225L82.65,63.225L82.65,63.558L82.64,71.031" style="fill:rgb(114,149,177);"/><g><circle cx="81.166" cy="81.611" r="11.35" style="fill:none;stroke:rgb(0,185,0);stroke-width:4.5px;stroke-linejoin:round;stroke-miterlimit:1.5;"/><g transform="matrix(27,0,0,27,89.0077,91.1059)"></g><text x="73.24px" y="91.106px" style="font-family:'Arial-BoldMT', 'Arial', sans-serif;font-weight:700;font-size:27px;fill:rgb(0,185,0);">+</text></g></g></g></svg>