<?xml version="1.0" encoding="UTF-8" standalone="no"?>
<!DOCTYPE svg PUBLIC "-//W3C//DTD SVG 1.1//EN" "http://www.w3.org/Graphics/SVG/1.1/DTD/svg11.dtd">
<svg width="100%" height="100%" viewBox="0 0 96 96" version="1.1" xmlns="http://www.w3.org/2000/svg" xmlns:xlink="http://www.w3.org/1999/xlink" xml:space="preserve" xmlns:serif="http://www.serif.com/" style="fill-rule:evenodd;clip-rule:evenodd;stroke-miterlimit:2;">
    <g id="CPanel-icons-v2" serif:id="CPanel icons v2">
        <g id="Categoriesedit-v2" serif:id="Categoriesedit v2">
            <path d="M23.056,71.986L23.056,80.75C23.056,83.511 25.326,85.75 28.125,85.75C42.678,85.75 69.597,85.75 69.597,85.75M19.748,19.972C18.403,19.971 17.114,20.498 16.163,21.436C15.213,22.374 14.678,23.645 14.678,24.972C14.678,34.911 14.678,56.047 14.678,65.986C14.678,67.312 15.212,68.584 16.163,69.522C17.114,70.459 18.403,70.986 19.747,70.986C32.136,70.986 63.843,70.986 76.232,70.986C79.031,70.986 81.3,68.747 81.3,65.986C81.3,57.67 81.3,41.092 81.3,32.777C81.3,30.015 79.031,27.777 76.232,27.777C67.016,27.777 48.456,27.777 48.456,27.777L39.534,19.975C39.534,19.975 27.017,19.973 19.748,19.972Z" style="fill:none;stroke:rgb(114,149,177);stroke-width:4.5px;"/>
            <g>
                <g>
                    <path d="M29.674,60.48C28.736,60.48 27.917,60.132 27.22,59.435C26.523,58.738 26.174,57.92 26.174,56.98C26.174,56.041 26.523,55.223 27.22,54.525C27.917,53.828 28.736,53.48 29.674,53.48C30.613,53.48 31.431,53.828 32.129,54.525C32.826,55.223 33.174,56.041 33.174,56.98C33.174,57.92 32.826,58.738 32.129,59.435C31.431,60.132 30.613,60.48 29.674,60.48Z" style="fill:rgb(249,159,0);fill-rule:nonzero;"/>
                    <path d="M46.353,56.937L66.353,56.937" style="fill:none;stroke:rgb(249,159,0);stroke-width:5px;stroke-linecap:round;stroke-linejoin:round;stroke-miterlimit:1.5;"/>
                </g>
                <g>
                    <path d="M29.674,45.602C28.736,45.602 27.917,45.253 27.22,44.557C26.523,43.86 26.174,43.041 26.174,42.102C26.174,41.163 26.523,40.345 27.22,39.648C27.917,38.951 28.736,38.603 29.674,38.603C30.613,38.603 31.431,38.951 32.129,39.648C32.826,40.345 33.174,41.163 33.174,42.102C33.174,43.041 32.826,43.86 32.129,44.557C31.431,45.253 30.613,45.602 29.674,45.602Z" style="fill:rgb(249,159,0);fill-rule:nonzero;"/>
                    <path d="M46.353,42.044L66.353,42.044" style="fill:none;stroke:rgb(249,159,0);stroke-width:5px;stroke-linecap:round;stroke-linejoin:round;stroke-miterlimit:1.5;"/>
                </g>
            </g>
            <g>
                <circle cx="81.166" cy="81.611" r="11.35" style="fill:none;stroke:rgb(0,185,0);stroke-width:4.5px;stroke-linecap:round;stroke-linejoin:round;stroke-miterlimit:1.5;"/>
                <g transform="matrix(27,0,0,27,89.0077,91.1059)">
                </g>
                <text x="73.24px" y="91.106px" style="font-family:'Arial-BoldMT', 'Arial', sans-serif;font-weight:700;font-size:27px;fill:rgb(0,185,0);">+</text>
            </g>
        </g>
    </g>
    <g id="_-Housekeeping-Icons" serif:id=" Housekeeping Icons">
    </g>
</svg>
