<?xml version="1.0" encoding="UTF-8" standalone="no"?>
<!DOCTYPE svg PUBLIC "-//W3C//DTD SVG 1.1//EN" "http://www.w3.org/Graphics/SVG/1.1/DTD/svg11.dtd">
<svg width="100%" height="100%" viewBox="0 0 96 96" version="1.1" xmlns="http://www.w3.org/2000/svg" xmlns:xlink="http://www.w3.org/1999/xlink" xml:space="preserve" xmlns:serif="http://www.serif.com/" style="fill-rule:evenodd;clip-rule:evenodd;stroke-linejoin:round;stroke-miterlimit:2;">
    <path d="M81.5,17.5L81.5,61.5C81.5,63.708 79.708,65.5 77.5,65.5L18.5,65.5C16.292,65.5 14.5,63.708 14.5,61.5L14.5,17.5C14.5,15.292 16.292,13.5 18.5,13.5L77.5,13.5C79.708,13.5 81.5,15.292 81.5,17.5ZM14.5,27.5L81.5,27.5" style="fill:none;stroke:rgb(114,149,177);stroke-width:4.5px;"/>
    <circle cx="24" cy="20.5" r="2.6" style="fill:rgb(249,159,0);"/>
    <circle cx="32" cy="20.5" r="2.6" style="fill:rgb(249,159,0);"/>
    <circle cx="40" cy="20.5" r="2.6" style="fill:rgb(249,159,0);"/>
    <path d="M27,41L69,41" style="fill:none;stroke:rgb(249,159,0);stroke-width:5px;stroke-linecap:round;"/>
    <path d="M27,53L57,53" style="fill:none;stroke:rgb(249,159,0);stroke-width:5px;stroke-linecap:round;"/>
    <path d="M69,80.943L69,68.107M48,80.943L48,67.943M27,80.943L27,67.943M27,81L69,81" style="fill:none;stroke:rgb(114,149,177);stroke-width:4.5px;stroke-linecap:round;"/>
    <circle cx="69" cy="81" r="5" style="fill:rgb(249,159,0);"/>
    <circle cx="48" cy="81" r="5" style="fill:rgb(249,159,0);"/>
    <circle cx="27" cy="81" r="5" style="fill:rgb(249,159,0);"/>
</svg>
