<?xml version="1.0" encoding="UTF-8" standalone="no"?>
<!DOCTYPE svg PUBLIC "-//W3C//DTD SVG 1.1//EN" "http://www.w3.org/Graphics/SVG/1.1/DTD/svg11.dtd">
<svg width="100%" height="100%" viewBox="0 0 96 96" version="1.1" xmlns="http://www.w3.org/2000/svg" xmlns:xlink="http://www.w3.org/1999/xlink" xml:space="preserve" xmlns:serif="http://www.serif.com/" style="fill-rule:evenodd;clip-rule:evenodd;stroke-linecap:round;stroke-linejoin:round;stroke-miterlimit:1.5;">
    <g id="Events">
        <path d="M19.518,88C17.498,88 15.811,87.323 14.458,85.97C13.105,84.617 12.428,82.931 12.428,80.911L12.428,24.878C12.428,22.858 13.105,21.172 14.458,19.818C15.811,18.465 17.498,17.789 19.518,17.789L27.28,17.789L27.28,8L32.006,8L32.006,17.789L63.399,17.789L63.399,8L67.788,8L67.788,17.789L75.55,17.789C77.57,17.789 79.257,18.465 80.61,19.818C81.963,21.172 82.64,22.858 82.64,24.878L82.64,80.911C82.64,82.931 81.963,84.617 80.61,85.97C79.257,87.323 77.57,88 75.55,88L19.518,88ZM19.518,83.612L75.55,83.612C76.226,83.612 76.845,83.331 77.408,82.768C77.97,82.206 78.251,81.587 78.251,80.911L78.251,42.431L16.817,42.431L16.817,80.911C16.817,81.587 17.098,82.206 17.66,82.768C18.223,83.331 18.842,83.612 19.518,83.612ZM16.817,38.042L78.251,38.042L78.251,24.878C78.251,24.202 77.97,23.583 77.408,23.021C76.845,22.458 76.226,22.177 75.55,22.177L19.518,22.177C18.842,22.177 18.223,22.458 17.66,23.021C17.098,23.583 16.817,24.202 16.817,24.878L16.817,38.042ZM16.817,38.042L16.817,22.177L16.817,38.042Z" style="fill:rgb(114,149,177);fill-rule:nonzero;"/>
        <g>
            <path d="M29.981,58.957C29.076,58.957 28.287,58.621 27.614,57.949C26.942,57.277 26.606,56.488 26.606,55.582C26.606,54.676 26.942,53.888 27.614,53.215C28.287,52.543 29.076,52.207 29.981,52.207C30.887,52.207 31.676,52.543 32.349,53.215C33.021,53.888 33.357,54.676 33.357,55.582C33.357,56.488 33.021,57.277 32.349,57.949C31.676,58.621 30.887,58.957 29.981,58.957ZM29.981,73.835C29.076,73.835 28.287,73.499 27.614,72.827C26.942,72.155 26.606,71.366 26.606,70.46C26.606,69.554 26.942,68.765 27.614,68.092C28.287,67.42 29.076,67.084 29.981,67.084C30.887,67.084 31.676,67.42 32.349,68.092C33.021,68.765 33.357,69.554 33.357,70.46C33.357,71.366 33.021,72.155 32.349,72.827C31.676,73.499 30.887,73.835 29.981,73.835Z" style="fill:rgb(249,159,0);fill-rule:nonzero;"/>
            <path d="M46.353,55.648L66.353,55.648" style="fill:none;stroke:rgb(249,159,0);stroke-width:5px;"/>
            <path d="M46.353,70.541L66.353,70.541" style="fill:none;stroke:rgb(249,159,0);stroke-width:5px;"/>
        </g>
    </g>
</svg>
