<?xml version="1.0" encoding="UTF-8" standalone="no"?>
<!DOCTYPE svg PUBLIC "-//W3C//DTD SVG 1.1//EN" "http://www.w3.org/Graphics/SVG/1.1/DTD/svg11.dtd">
<svg width="100%" height="100%" viewBox="0 0 96 96" version="1.1" xmlns="http://www.w3.org/2000/svg" xmlns:xlink="http://www.w3.org/1999/xlink" xml:space="preserve" xmlns:serif="http://www.serif.com/" style="fill-rule:evenodd;clip-rule:evenodd;stroke-miterlimit:2;">
    <g id="CPanel-icons-v2" serif:id="CPanel icons v2">
        <g id="export-v2" serif:id="export v2">
            <g>
                <path d="M81.3,73.457L81.3,80.732C81.3,83.493 79.031,85.732 76.232,85.732L19.747,85.732C16.948,85.732 14.678,83.493 14.678,80.732L14.678,24.971C14.678,22.209 16.948,19.971 19.747,19.971L76.232,19.971C79.031,19.971 81.3,22.209 81.3,24.971L81.3,47.954" style="fill:none;stroke:rgb(114,149,177);stroke-width:4.5px;"/>
                <path d="M39.773,61.221L82.6,61.172M68.185,76.088L82.65,61.221L68.216,47.202" style="fill:none;stroke:rgb(114,149,177);stroke-width:4.5px;"/>
                <path d="M26.65,35.602C25.711,35.602 24.893,35.253 24.195,34.556C23.498,33.859 23.15,33.041 23.15,32.102C23.15,31.163 23.498,30.345 24.195,29.648C24.893,28.951 25.711,28.603 26.65,28.603C27.589,28.603 28.407,28.951 29.105,29.648C29.802,30.345 30.15,31.163 30.15,32.102C30.15,33.041 29.802,33.859 29.105,34.556C28.407,35.253 27.589,35.602 26.65,35.602ZM26.65,49.467C25.711,49.467 24.893,49.119 24.195,48.422C23.498,47.725 23.15,46.907 23.15,45.967C23.15,45.029 23.498,44.21 24.195,43.513C24.893,42.816 25.711,42.467 26.65,42.467C27.589,42.467 28.407,42.816 29.105,43.513C29.802,44.21 30.15,45.029 30.15,45.967C30.15,46.907 29.802,47.725 29.105,48.422C28.407,49.119 27.589,49.467 26.65,49.467ZM26.65,63.234C25.711,63.234 24.893,62.885 24.195,62.189C23.498,61.492 23.15,60.673 23.15,59.734C23.15,58.795 23.498,57.977 24.195,57.28C24.893,56.583 25.711,56.235 26.65,56.235C27.589,56.235 28.407,56.583 29.105,57.28C29.802,57.977 30.15,58.795 30.15,59.734C30.15,60.673 29.802,61.492 29.105,62.189C28.407,62.885 27.589,63.234 26.65,63.234ZM26.65,77.1C25.711,77.1 24.893,76.751 24.195,76.054C23.498,75.357 23.15,74.539 23.15,73.6C23.15,72.661 23.498,71.843 24.195,71.145C24.893,70.448 25.711,70.1 26.65,70.1C27.589,70.1 28.407,70.448 29.105,71.145C29.802,71.843 30.15,72.661 30.15,73.6C30.15,74.539 29.802,75.357 29.105,76.054C28.407,76.751 27.589,77.1 26.65,77.1Z" style="fill:rgb(249,159,0);"/>
            </g>
        </g>
    </g>
    <g id="_-Housekeeping-Icons" serif:id=" Housekeeping Icons">
    </g>
</svg>
