<?xml version="1.0" encoding="UTF-8" standalone="no"?><!DOCTYPE svg PUBLIC "-//W3C//DTD SVG 1.1//EN" "http://www.w3.org/Graphics/SVG/1.1/DTD/svg11.dtd"><svg width="96px" height="96px" version="1.1" xmlns="http://www.w3.org/2000/svg" xmlns:xlink="http://www.w3.org/1999/xlink" xml:space="preserve" xmlns:serif="http://www.serif.com/" style="fill-rule:evenodd;clip-rule:evenodd;stroke-miterlimit:2;"><g id="v1"></g><g id="final"><g id="import-v2" serif:id="import v2"><g><path d="M14.678,32.245L14.678,24.971C14.678,22.209 16.917,19.971 19.678,19.971L75.4,19.971C78.161,19.971 80.4,22.209 80.4,24.971L80.4,80.732C80.4,83.493 78.161,85.732 75.4,85.732L19.678,85.732C16.917,85.732 14.678,83.493 14.678,80.732L14.678,57.748" style="fill:none;stroke:rgb(114,149,177);stroke-width:4.5px;"/><path d="M68.394,35.602C67.455,35.602 66.637,35.253 65.94,34.556C65.243,33.859 64.894,33.041 64.894,32.102C64.894,31.163 65.243,30.345 65.94,29.648C66.637,28.951 67.455,28.603 68.394,28.603C69.333,28.603 70.151,28.951 70.849,29.648C71.546,30.345 71.894,31.163 71.894,32.102C71.894,33.041 71.546,33.859 70.849,34.556C70.151,35.253 69.333,35.602 68.394,35.602ZM68.394,49.467C67.455,49.467 66.637,49.119 65.94,48.422C65.243,47.725 64.894,46.907 64.894,45.967C64.894,45.029 65.243,44.21 65.94,43.513C66.637,42.816 67.455,42.467 68.394,42.467C69.333,42.467 70.151,42.816 70.849,43.513C71.546,44.21 71.894,45.029 71.894,45.967C71.894,46.907 71.546,47.725 70.849,48.422C70.151,49.119 69.333,49.467 68.394,49.467ZM68.394,63.234C67.455,63.234 66.637,62.885 65.94,62.189C65.243,61.492 64.894,60.673 64.894,59.734C64.894,58.795 65.243,57.977 65.94,57.28C66.637,56.583 67.455,56.235 68.394,56.235C69.333,56.235 70.151,56.583 70.849,57.28C71.546,57.977 71.894,58.795 71.894,59.734C71.894,60.673 71.546,61.492 70.849,62.189C70.151,62.885 69.333,63.234 68.394,63.234ZM68.394,77.1C67.455,77.1 66.637,76.751 65.94,76.054C65.243,75.357 64.894,74.539 64.894,73.6C64.894,72.661 65.243,71.843 65.94,71.145C66.637,70.448 67.455,70.1 68.394,70.1C69.333,70.1 70.151,70.448 70.849,71.145C71.546,71.843 71.894,72.661 71.894,73.6C71.894,74.539 71.546,75.357 70.849,76.054C70.151,76.751 69.333,77.1 68.394,77.1Z" style="fill:rgb(249,159,0);"/><path d="M12.428,44.481L55.256,44.53M40.841,29.615L55.306,44.481L40.871,58.5" style="fill:none;stroke:rgb(114,149,177);stroke-width:4.5px;"/></g></g></g></svg>