<?xml version="1.0" encoding="UTF-8" standalone="no"?>
<!DOCTYPE svg PUBLIC "-//W3C//DTD SVG 1.1//EN" "http://www.w3.org/Graphics/SVG/1.1/DTD/svg11.dtd">
<svg width="100%" height="100%" viewBox="0 0 96 96" version="1.1" xmlns="http://www.w3.org/2000/svg" xmlns:xlink="http://www.w3.org/1999/xlink" xml:space="preserve" xmlns:serif="http://www.serif.com/" style="fill-rule:evenodd;clip-rule:evenodd;stroke-linecap:round;stroke-linejoin:round;stroke-miterlimit:1.5;">
    <g id="Plugins">
        <path d="M73.298,48.363L85.627,36.034" style="fill:none;stroke:rgb(246,157,0);stroke-width:4.9px;"/>
        <path d="M54.107,30.062L66.745,17.424" style="fill:none;stroke:rgb(246,157,0);stroke-width:4.9px;"/>
        <path id="Plugins1" serif:id="Plugins" d="M15.326,80.251L22.528,87.453L31.561,78.419L56.882,78.99L73.734,62.138C74.35,61.522 75.368,59.997 75.373,58.976C75.378,57.956 74.369,56.434 73.759,55.824L46.955,29.02C46.346,28.41 44.823,27.401 43.803,27.406C42.783,27.412 41.257,28.429 40.641,29.046L23.789,45.897L23.653,71.925L15.326,80.251ZM8.779,80.293L19.398,69.674L19.535,43.646L37.388,25.793C39.179,24.002 41.327,23.1 43.833,23.086C46.339,23.074 48.478,23.953 50.25,25.725L77.054,52.529C78.826,54.301 79.706,56.44 79.693,58.946C79.679,61.452 78.777,63.6 76.986,65.391L59.133,83.244L33.105,83.381L22.486,94L8.779,80.293Z" style="fill:rgb(114,149,177);fill-rule:nonzero;"/>
        <path d="M53.66,49.119C58.089,53.549 58.089,60.741 53.66,65.171C49.23,69.6 42.038,69.6 37.609,65.171C33.179,60.741 33.179,53.549 37.609,49.119C42.038,44.69 49.23,44.69 53.66,49.119Z" style="fill:none;stroke:rgb(249,159,0);stroke-width:4.2px;"/>
    </g>
</svg>
