<?xml version="1.0" encoding="UTF-8" standalone="no"?>
<!DOCTYPE svg PUBLIC "-//W3C//DTD SVG 1.1//EN" "http://www.w3.org/Graphics/SVG/1.1/DTD/svg11.dtd">
<svg width="100%" height="100%" viewBox="0 0 96 96" version="1.1" xmlns="http://www.w3.org/2000/svg" xmlns:xlink="http://www.w3.org/1999/xlink" xml:space="preserve" xmlns:serif="http://www.serif.com/" style="fill-rule:evenodd;clip-rule:evenodd;stroke-linejoin:round;stroke-miterlimit:2;">
    <g id="CSS-manager" serif:id="CSS manager">
        <path d="M23.52,48.29L23.52,44.042C24.293,43.995 26.233,43.865 26.625,43.653C27.017,43.441 27.355,43.084 27.641,42.582C27.927,42.081 28.123,41.452 28.229,40.697C28.313,40.131 28.356,39.146 28.356,37.742C28.356,35.452 28.451,33.857 28.642,32.954C28.832,32.051 29.176,31.326 29.674,30.777C30.171,30.228 30.897,29.795 31.849,29.476C32.495,29.264 33.511,29.157 34.898,29.157L37.098,29.157L37.098,33.938C36.074,33.938 34.06,34.009 33.769,34.15C33.479,34.291 33.265,34.506 33.126,34.795C32.988,35.083 32.919,35.578 32.919,36.279C32.919,36.991 32.878,38.342 32.795,40.332C32.749,41.451 32.629,42.358 32.435,43.054C32.242,43.749 31.995,44.323 31.695,44.775C31.396,45.227 30.937,45.696 30.32,46.183C30.863,46.567 31.308,47.016 31.654,47.531C32,48.045 32.269,48.65 32.453,49.384C32.638,50.118 32.757,51.1 32.812,52.331C32.877,54.205 32.909,55.402 32.909,55.921C32.909,56.666 32.983,57.186 33.13,57.479C33.277,57.773 33.501,57.996 33.8,58.148C34.099,58.301 36.103,58.377 37.098,58.377L37.098,63.175L34.898,63.175C33.469,63.175 32.373,63.049 31.611,62.795C30.849,62.541 30.206,62.119 29.682,61.529C29.158,60.939 28.806,60.211 28.626,59.343C28.446,58.476 28.356,57.11 28.356,55.246C28.356,53.075 28.271,51.665 28.102,51.016C27.869,50.072 27.517,49.396 27.046,48.989C26.575,48.582 24.494,48.349 23.52,48.29Z" style="fill:rgb(246,157,0);fill-rule:nonzero;"/>
        <path d="M71.536,48.29L71.536,44.042C70.763,43.995 68.823,43.865 68.432,43.653C68.04,43.441 67.701,43.084 67.415,42.582C67.129,42.081 66.934,41.452 66.828,40.697C66.743,40.131 66.701,39.146 66.701,37.742C66.701,35.452 66.605,33.857 66.415,32.954C66.224,32.051 65.88,31.326 65.383,30.777C64.885,30.228 64.16,29.795 63.207,29.476C62.561,29.264 61.545,29.157 60.158,29.157L57.959,29.157L57.959,33.938C58.982,33.938 60.997,34.009 61.287,34.15C61.577,34.291 61.792,34.506 61.93,34.795C62.068,35.083 62.137,35.578 62.137,36.279C62.137,36.991 62.179,38.342 62.262,40.332C62.308,41.451 62.428,42.358 62.621,43.054C62.815,43.749 63.062,44.323 63.361,44.775C63.661,45.227 64.119,45.696 64.737,46.183C64.193,46.567 63.748,47.016 63.403,47.531C63.057,48.045 62.787,48.65 62.603,49.384C62.419,50.118 62.299,51.1 62.244,52.331C62.18,54.205 62.147,55.402 62.147,55.921C62.147,56.666 62.074,57.186 61.926,57.479C61.779,57.773 61.556,57.996 61.257,58.148C60.958,58.301 58.953,58.377 57.959,58.377L57.959,63.175L60.158,63.175C61.587,63.175 62.683,63.049 63.445,62.795C64.208,62.541 64.851,62.119 65.375,61.529C65.899,60.939 66.251,60.211 66.431,59.343C66.611,58.476 66.701,57.11 66.701,55.246C66.701,53.075 66.785,51.665 66.955,51.016C67.188,50.072 67.54,49.396 68.011,48.989C68.482,48.582 70.562,48.349 71.536,48.29Z" style="fill:rgb(246,157,0);fill-rule:nonzero;"/>
        <path d="M44.772,78.447C44.364,78.447 44.031,78.317 43.773,78.059C43.514,77.801 43.385,77.468 43.385,77.06L43.385,75.183L45.343,75.183L45.343,76.488L49.586,76.488L49.586,74.326L44.772,74.326C44.391,74.326 44.065,74.191 43.793,73.919C43.521,73.647 43.385,73.32 43.385,72.94L43.385,70.043C43.385,69.635 43.514,69.302 43.773,69.044C44.031,68.785 44.364,68.656 44.772,68.656L50.157,68.656C50.565,68.656 50.898,68.785 51.156,69.044C51.415,69.302 51.544,69.635 51.544,70.043L51.544,71.92L49.586,71.92L49.586,70.614L45.343,70.614L45.343,72.776L50.157,72.776C50.537,72.776 50.864,72.912 51.136,73.184C51.408,73.456 51.544,73.783 51.544,74.163L51.544,77.06C51.544,77.468 51.415,77.801 51.156,78.059C50.898,78.317 50.565,78.447 50.157,78.447L44.772,78.447ZM55.378,78.447C54.97,78.447 54.637,78.317 54.379,78.059C54.12,77.801 53.991,77.468 53.991,77.06L53.991,75.183L55.949,75.183L55.949,76.488L60.192,76.488L60.192,74.326L55.378,74.326C54.997,74.326 54.671,74.191 54.399,73.919C54.127,73.647 53.991,73.32 53.991,72.94L53.991,70.043C53.991,69.635 54.12,69.302 54.379,69.044C54.637,68.785 54.97,68.656 55.378,68.656L60.763,68.656C61.171,68.656 61.504,68.785 61.762,69.044C62.021,69.302 62.15,69.635 62.15,70.043L62.15,71.92L60.192,71.92L60.192,70.614L55.949,70.614L55.949,72.776L60.763,72.776C61.144,72.776 61.47,72.912 61.742,73.184C62.014,73.456 62.15,73.783 62.15,74.163L62.15,77.06C62.15,77.468 62.021,77.801 61.762,78.059C61.504,78.317 61.171,78.447 60.763,78.447L55.378,78.447ZM34.166,78.447C33.758,78.447 33.425,78.317 33.167,78.059C32.908,77.801 32.779,77.468 32.779,77.06L32.779,70.043C32.779,69.635 32.908,69.302 33.167,69.044C33.425,68.785 33.758,68.656 34.166,68.656L39.551,68.656C39.959,68.656 40.292,68.785 40.55,69.044C40.808,69.302 40.938,69.635 40.938,70.043L40.938,71.92L38.98,71.92L38.98,70.614L34.737,70.614L34.737,76.488L38.98,76.488L38.98,75.183L40.938,75.183L40.938,77.06C40.938,77.468 40.808,77.801 40.55,78.059C40.292,78.317 39.959,78.447 39.551,78.447L34.166,78.447Z" style="fill:rgb(114,149,177);fill-rule:nonzero;"/>
        <path d="M18.385,88.744C16.761,88.744 15.363,88.157 14.189,86.984C13.015,85.81 12.428,84.411 12.428,82.787L12.428,24.49C12.428,22.866 13.015,21.467 14.189,20.293C15.363,19.12 16.761,18.533 18.385,18.533L39.552,18.533C39.419,16.309 40.137,14.376 41.704,12.735C43.272,11.094 45.215,10.273 47.534,10.273C49.88,10.273 51.836,11.094 53.404,12.735C54.971,14.376 55.675,16.309 55.516,18.533L76.683,18.533C78.307,18.533 79.705,19.12 80.879,20.293C82.053,21.467 82.64,22.866 82.64,24.49L82.64,82.787C82.64,84.411 82.053,85.81 80.879,86.984C79.705,88.157 78.307,88.744 76.683,88.744L18.385,88.744ZM18.385,84.057L76.683,84.057C77,84.057 77.291,83.925 77.556,83.661C77.821,83.396 77.953,83.105 77.953,82.787L77.953,24.49C77.953,24.172 77.821,23.881 77.556,23.616C77.291,23.352 77,23.22 76.683,23.22L18.385,23.22C18.068,23.22 17.777,23.352 17.512,23.616C17.247,23.881 17.115,24.172 17.115,24.49L17.115,82.787C17.115,83.105 17.247,83.396 17.512,83.661C17.777,83.925 18.068,84.057 18.385,84.057ZM47.526,21.504C48.457,21.504 49.274,21.162 49.976,20.479C50.678,19.796 51.029,18.979 51.029,18.029C51.029,17.079 50.678,16.262 49.976,15.579C49.274,14.895 48.457,14.554 47.526,14.554C46.594,14.554 45.786,14.895 45.103,15.579C44.421,16.262 44.079,17.079 44.079,18.029C44.079,18.979 44.421,19.796 45.103,20.479C45.786,21.162 46.594,21.504 47.526,21.504ZM17.115,84.057L17.115,23.22L17.115,84.057Z" style="fill:rgb(114,149,177);fill-rule:nonzero;"/>
    </g>
</svg>
