<?xml version="1.0" encoding="UTF-8" standalone="no"?>
<!DOCTYPE svg PUBLIC "-//W3C//DTD SVG 1.1//EN" "http://www.w3.org/Graphics/SVG/1.1/DTD/svg11.dtd">
<svg width="100%" height="100%" viewBox="0 0 96 96" version="1.1" xmlns="http://www.w3.org/2000/svg" xmlns:xlink="http://www.w3.org/1999/xlink" xml:space="preserve" xmlns:serif="http://www.serif.com/" style="fill-rule:evenodd;clip-rule:evenodd;stroke-linejoin:round;stroke-miterlimit:10;">
    <g id="_-Housekeeping-Icons" serif:id=" Housekeeping Icons">
        <g id="Cleanup-Event-images" serif:id="Cleanup Event images">
            <g>
                <path d="M58.228,69.009L56.696,67.478L38.424,85.75M50.562,73.612L32.158,55.209L14.678,72.688" style="fill:none;fill-rule:nonzero;stroke:rgb(246,157,0);stroke-width:4.5px;"/>
                <circle cx="52.607" cy="53.209" r="5.5" style="fill:none;stroke:rgb(246,157,0);stroke-width:4.5px;"/>
            </g>
            <g>
                <path d="M63.359,61.298L91.959,61.298" style="fill:none;stroke:rgb(225,0,26);stroke-width:3.5px;stroke-linejoin:miter;stroke-miterlimit:2;"/>
                <path d="M71.394,59.563L83.925,59.563" style="fill:none;stroke:rgb(225,0,26);stroke-width:3.5px;stroke-linejoin:miter;stroke-miterlimit:2;"/>
                <path d="M67.215,61.298L67.215,88.301C67.215,88.832 67.426,89.341 67.801,89.716C68.177,90.091 68.686,90.302 69.216,90.301C73.072,90.299 81.489,90.294 85.343,90.292C86.447,90.291 87.342,89.396 87.342,88.292C87.342,81.735 87.342,61.298 87.342,61.298" style="fill:none;stroke:rgb(225,0,26);stroke-width:3.5px;stroke-linejoin:miter;stroke-miterlimit:2;"/>
                <path d="M70.947,69.432L83.561,82.046M70.947,82.046L83.561,69.432" style="fill:none;stroke:rgb(225,0,26);stroke-width:3.5px;stroke-linejoin:miter;stroke-miterlimit:2;"/>
            </g>
            <path d="M66.6,10.02L66.6,17.721M28.428,10.02L28.428,17.721" style="fill:none;stroke:rgb(114,149,177);stroke-width:4.5px;stroke-linecap:square;stroke-linejoin:miter;stroke-miterlimit:100;"/>
            <path d="M67.311,10.02L67.311,17.721M28.617,10.02L28.617,17.721M58.853,85.75L19.747,85.75C18.403,85.75 17.114,85.223 16.163,84.286C15.212,83.348 14.678,82.076 14.678,80.75C14.678,68.519 14.678,37.201 14.678,24.971C14.678,23.645 15.212,22.373 16.163,21.435C17.114,20.498 18.403,19.971 19.747,19.971C32.136,19.971 63.843,19.971 76.232,19.971C77.576,19.971 78.865,20.498 79.815,21.435C80.766,22.373 81.3,23.645 81.3,24.971L81.3,51.021M16.55,40.29L78.813,40.29" style="fill:none;stroke:rgb(114,149,177);stroke-width:4.53px;stroke-linecap:square;stroke-linejoin:miter;stroke-miterlimit:100;"/>
        </g>
    </g>
</svg>
