<?xml version="1.0" encoding="UTF-8" standalone="no"?>
<!DOCTYPE svg PUBLIC "-//W3C//DTD SVG 1.1//EN" "http://www.w3.org/Graphics/SVG/1.1/DTD/svg11.dtd">
<svg width="100%" height="100%" viewBox="0 0 96 96" version="1.1" xmlns="http://www.w3.org/2000/svg" xmlns:xlink="http://www.w3.org/1999/xlink" xml:space="preserve" xmlns:serif="http://www.serif.com/" style="fill-rule:evenodd;clip-rule:evenodd;stroke-miterlimit:1.5;">
    <g id="CPanel-icons-v2" serif:id="CPanel icons v2">
        <g id="Update">
            <path d="M59.338,51C59.338,57.264 54.258,62.35 48,62.35C41.742,62.35 36.662,57.264 36.662,51C36.662,44.736 41.742,39.65 48,39.65" style="fill:none;stroke:rgb(249,159,0);stroke-width:4.5px;"/>
            <path d="M83,50.968L83,51M65.042,81.572C59.997,84.392 54.185,86 48,86C28.683,86 13,70.317 13,51C13,31.683 28.683,16 48,16C61.325,16 72.92,23.462 78.832,34.432C79.812,36.25 80.636,38.165 81.285,40.158M83,51C83,55.913 81.986,60.591 80.155,64.836" style="fill:none;stroke:rgb(114,149,177);stroke-width:4.5px;stroke-miterlimit:2;"/>
            <path d="M82.457,22.8L82.457,41.848M65.543,39.694L82.457,39.694" style="fill:none;stroke:rgb(114,149,177);stroke-width:4.5px;stroke-miterlimit:2;"/>
            <g>
                <circle cx="79.43" cy="79.368" r="16.045" style="fill:rgb(225,0,26);"/>
                <path d="M78.11,84.548L77.005,73.287L77.005,68.08L81.607,68.08L81.607,73.287L80.517,84.548L78.11,84.548ZM77.187,90.27L77.187,86.017L81.44,86.017L81.44,90.27L77.187,90.27Z" style="fill:white;fill-rule:nonzero;"/>
            </g>
        </g>
    </g>
</svg>
