<?xml version="1.0" encoding="UTF-8" standalone="no"?>
<!DOCTYPE svg PUBLIC "-//W3C//DTD SVG 1.1//EN" "http://www.w3.org/Graphics/SVG/1.1/DTD/svg11.dtd">
<svg width="100%" height="100%" viewBox="0 0 96 96" version="1.1" xmlns="http://www.w3.org/2000/svg" xmlns:xlink="http://www.w3.org/1999/xlink" xml:space="preserve" xmlns:serif="http://www.serif.com/" style="fill-rule:evenodd;clip-rule:evenodd;stroke-miterlimit:2;">
    <g id="weitere-Icons" serif:id="weitere Icons">
        <g>
            <g id="icon-48-unknown-version">
                <path d="M47.256,66.63C46.205,66.63 45.196,67.048 44.453,67.791C43.71,68.534 43.292,69.543 43.292,70.594C43.292,70.595 43.292,70.596 43.292,70.596C43.292,71.648 43.71,72.656 44.453,73.399C45.196,74.143 46.205,74.56 47.256,74.56C47.28,74.56 47.304,74.56 47.328,74.56C48.379,74.56 49.387,74.143 50.131,73.399C50.874,72.656 51.292,71.648 51.292,70.596C51.292,70.596 51.292,70.595 51.292,70.594C51.292,69.543 50.874,68.534 50.131,67.791C49.387,67.048 48.379,66.63 47.328,66.63C47.304,66.63 47.28,66.63 47.256,66.63ZM33.338,41.909L38.035,41.917C37.995,40.378 38.173,38.829 38.568,37.526C38.962,36.224 39.555,35.089 40.344,34.122C41.133,33.154 42.14,32.395 43.364,31.842C44.587,31.289 45.989,31.013 47.568,31.013C48.712,31.013 49.798,31.21 50.824,31.605C51.851,32 52.749,32.543 53.518,33.233C54.288,33.924 54.9,34.763 55.354,35.75C55.808,36.737 56.035,37.822 56.035,39.006C56.035,40.546 55.67,41.947 54.939,43.21C54.209,44.474 53.291,45.618 52.186,46.645C50.923,47.789 49.847,48.816 48.959,49.724C48.071,50.631 47.36,51.579 46.828,52.566C46.295,53.552 45.91,54.658 45.673,55.881C45.436,57.105 45.337,60.158 45.377,61.974L49.267,61.979C49.31,60.025 49.394,58.528 49.522,57.487C49.649,56.446 49.904,55.565 50.286,54.843C50.669,54.121 51.253,53.388 52.039,52.645C52.824,51.901 53.876,50.871 55.193,49.554C56.807,48.025 58.134,46.432 59.175,44.776C60.215,43.119 60.736,41.102 60.736,38.723C60.736,36.854 60.396,35.197 59.716,33.753C59.037,32.309 58.102,31.077 56.913,30.058C55.723,29.038 54.354,28.263 52.803,27.732C51.253,27.201 49.586,26.936 47.802,26.936C45.508,26.936 43.469,27.297 41.685,28.019C39.901,28.741 38.382,29.75 37.129,31.045C35.876,32.341 34.931,33.912 34.294,35.76C33.657,37.608 33.338,39.657 33.338,41.909Z" style="fill:rgb(246,157,0);fill-rule:nonzero;"/>
                <g id="Update">
                    <path d="M82,50.969C82,50.979 82,50.99 82,51M82,51C82,69.765 66.765,85 48,85C29.235,85 14,69.765 14,51C14,32.235 29.235,17 48,17C60.944,17 72.208,24.249 77.951,34.905C78.903,36.672 79.703,38.531 80.334,40.467" style="fill:none;stroke:rgb(114,149,177);stroke-width:4.5px;"/>
                    <path d="M81.3,24.65L81.3,39.65L65.3,39.65" style="fill:none;stroke:rgb(114,149,177);stroke-width:4.5px;"/>
                </g>
            </g>
        </g>
    </g>
</svg>
