<?xml version="1.0" encoding="UTF-8" standalone="no"?>
<!DOCTYPE svg PUBLIC "-//W3C//DTD SVG 1.1//EN" "http://www.w3.org/Graphics/SVG/1.1/DTD/svg11.dtd">
<svg width="100%" height="100%" viewBox="0 0 96 96" version="1.1" xmlns="http://www.w3.org/2000/svg" xmlns:xlink="http://www.w3.org/1999/xlink" xml:space="preserve" xmlns:serif="http://www.serif.com/" style="fill-rule:evenodd;clip-rule:evenodd;stroke-miterlimit:2;">
    <g id="CPanel-icons-v2" serif:id="CPanel icons v2">
        <g id="help-v2" serif:id="help v2">
            <path d="M48.293,68.541C47.511,68.541 46.762,68.851 46.21,69.403C45.657,69.956 45.347,70.705 45.347,71.487C45.347,71.488 45.347,71.489 45.347,71.49C45.347,72.271 45.657,73.02 46.21,73.573C46.762,74.125 47.511,74.436 48.293,74.436C48.311,74.436 48.329,74.436 48.348,74.436C49.129,74.436 49.878,74.125 50.431,73.573C50.983,73.02 51.294,72.271 51.294,71.49C51.294,71.489 51.294,71.488 51.294,71.487C51.294,70.705 50.983,69.956 50.431,69.403C49.878,68.851 49.129,68.541 48.348,68.541C48.329,68.541 48.311,68.541 48.293,68.541ZM32.816,41.072L37.276,41.072C37.229,39.232 37.441,37.533 37.913,35.975C38.385,34.418 39.093,33.061 40.037,31.904C40.981,30.748 42.185,29.84 43.648,29.179C45.111,28.518 46.786,28.188 48.674,28.188C50.043,28.188 51.341,28.424 52.568,28.896C53.795,29.368 54.869,30.017 55.789,30.842C56.709,31.668 57.441,32.671 57.984,33.851C58.526,35.031 58.798,36.329 58.798,37.745C58.798,39.586 58.361,41.261 57.488,42.771C56.615,44.282 55.518,45.65 54.196,46.877C52.686,48.246 51.4,49.473 50.338,50.559C49.276,51.644 48.426,52.777 47.789,53.957C47.152,55.137 46.692,56.458 46.409,57.921C46.126,59.384 46.008,61.202 46.055,63.373L50.515,63.373C50.562,61.202 50.656,59.538 50.798,58.382C50.94,57.225 51.223,56.246 51.648,55.444C52.072,54.641 52.721,53.827 53.594,53.001C54.468,52.175 55.636,51.031 57.099,49.568C58.892,47.869 60.367,46.099 61.523,44.258C62.68,42.417 63.258,40.176 63.258,37.533C63.258,35.456 62.88,33.615 62.125,32.011C61.37,30.406 60.332,29.037 59.01,27.904C57.689,26.772 56.167,25.91 54.444,25.32C52.721,24.731 50.869,24.436 48.887,24.436C46.338,24.436 44.073,24.837 42.09,25.639C40.108,26.441 38.421,27.562 37.028,29.002C35.636,30.441 34.586,32.188 33.878,34.241C33.17,36.294 32.816,38.571 32.816,41.072Z" style="fill:rgb(246,157,0);fill-rule:nonzero;"/>
            <ellipse cx="48" cy="48.721" rx="35" ry="35.005" style="fill:none;stroke:rgb(114,149,177);stroke-width:4.5px;"/>
        </g>
    </g>
    <g id="_-Housekeeping-Icons" serif:id=" Housekeeping Icons">
    </g>
</svg>
