<?xml version="1.0" encoding="UTF-8" standalone="no"?>
<!DOCTYPE svg PUBLIC "-//W3C//DTD SVG 1.1//EN" "http://www.w3.org/Graphics/SVG/1.1/DTD/svg11.dtd">
<svg width="100%" height="100%" viewBox="0 0 96 96" version="1.1" xmlns="http://www.w3.org/2000/svg" xmlns:xlink="http://www.w3.org/1999/xlink" xml:space="preserve" xmlns:serif="http://www.serif.com/" style="fill-rule:evenodd;clip-rule:evenodd;stroke-miterlimit:2;">
    <g id="_-Housekeeping-Icons" serif:id=" Housekeeping Icons">
        <g id="Delete-zombie-Cat-Event-references" serif:id="Delete zombie Cat/Event references">
            <g>
                <path d="M63.359,61.298L91.959,61.298" style="fill:none;stroke:rgb(225,0,26);stroke-width:3.5px;"/>
                <path d="M71.394,59.563L83.925,59.563" style="fill:none;stroke:rgb(225,0,26);stroke-width:3.5px;"/>
                <path d="M67.215,61.298L67.215,88.301C67.215,88.832 67.426,89.341 67.801,89.716C68.177,90.091 68.686,90.302 69.216,90.301C73.072,90.299 81.489,90.294 85.343,90.292C86.447,90.291 87.342,89.396 87.342,88.292C87.342,81.735 87.342,61.298 87.342,61.298" style="fill:none;stroke:rgb(225,0,26);stroke-width:3.5px;"/>
                <path d="M70.947,69.432L83.561,82.046M70.947,82.046L83.561,69.432" style="fill:none;stroke:rgb(225,0,26);stroke-width:3.5px;"/>
            </g>
            <circle cx="26.028" cy="74.382" r="11.35" style="fill:none;stroke:rgb(114,149,177);stroke-width:4.5px;stroke-linecap:round;stroke-linejoin:round;stroke-miterlimit:1.5;"/>
            <path d="M63.775,41.632C66.772,46.824 64.991,53.472 59.799,56.469C54.608,59.466 47.96,57.685 44.963,52.493" style="fill:none;stroke:rgb(0,185,0);stroke-width:4.5px;stroke-linecap:square;stroke-linejoin:round;stroke-miterlimit:1.5;"/>
            <circle cx="68.325" cy="24.465" r="11.35" style="fill:none;stroke:rgb(249,159,0);stroke-width:4.5px;stroke-linecap:round;stroke-linejoin:round;stroke-miterlimit:1.5;"/>
            <path d="M31.039,50.934C29.677,49.202 28.864,47.018 28.864,44.645C28.864,39.021 33.431,34.455 39.055,34.455C44.679,34.455 49.245,39.021 49.245,44.645" style="fill:none;stroke:rgb(249,159,0);stroke-width:4.5px;stroke-linecap:square;stroke-linejoin:round;stroke-miterlimit:1.5;"/>
            <path d="M37.114,17.513C38.383,22.992 34.964,28.47 29.485,29.739C24.006,31.008 18.527,27.59 17.259,22.11" style="fill:none;stroke:rgb(114,149,177);stroke-width:4.5px;stroke-linecap:square;stroke-linejoin:round;stroke-miterlimit:1.5;"/>
        </g>
    </g>
</svg>
