<?xml version="1.0" encoding="UTF-8" standalone="no"?>
<!DOCTYPE svg PUBLIC "-//W3C//DTD SVG 1.1//EN" "http://www.w3.org/Graphics/SVG/1.1/DTD/svg11.dtd">
<svg width="100%" height="100%" viewBox="0 0 96 96" version="1.1" xmlns="http://www.w3.org/2000/svg" xmlns:xlink="http://www.w3.org/1999/xlink" xml:space="preserve" xmlns:serif="http://www.serif.com/" style="fill-rule:evenodd;clip-rule:evenodd;stroke-miterlimit:2;">
    <g id="CPanel-icons-v2" serif:id="CPanel icons v2">
        <g id="Sampledata-v2" serif:id="Sampledata v2">
            <path d="M14.765,37.315C14.849,37.126 14.991,36.964 15.176,36.857C15.484,36.678 15.864,36.676 16.174,36.853L47.998,54.999L79.821,36.853C80.131,36.676 81.146,37.126 81.23,37.315C81.287,37.441 81.317,37.579 81.317,37.721L81.317,71.272C81.317,72.342 80.747,73.33 79.822,73.867C74.139,77.163 53.096,89.338 47.998,92.288C42.899,89.338 21.856,77.163 16.173,73.867C15.248,73.33 14.678,72.342 14.678,71.272L14.678,37.721C14.678,37.579 14.709,37.441 14.765,37.315ZM32.254,26.242L16.509,34.983C15.611,35.482 14.984,36.336 14.765,37.315M63.742,26.242L79.486,34.983C80.384,35.482 81.011,36.336 81.23,37.315" style="fill:none;stroke:rgb(114,149,177);stroke-width:4.5px;"/>
            <g>
                <g>
                    <path d="M23.142,57.254C22.506,56.896 22.104,56.047 21.898,55.535C21.528,54.617 21.368,53.715 21.368,52.849C21.368,52.285 21.433,51.39 21.898,50.752C22.155,50.399 22.554,50.091 23.142,50.411C23.777,50.757 24.178,51.596 24.387,52.115C24.754,53.025 24.917,53.932 24.917,54.815C24.917,55.372 24.855,56.286 24.387,56.929C24.123,57.291 23.725,57.582 23.142,57.254ZM23.142,69.713C22.507,69.335 22.105,68.473 21.898,67.954C21.606,67.22 21.368,66.308 21.368,65.251C21.368,64.689 21.432,63.794 21.898,63.169C22.161,62.816 22.561,62.533 23.142,62.869C23.777,63.235 24.178,64.087 24.387,64.613C24.76,65.551 24.917,66.465 24.917,67.331C24.917,67.885 24.856,68.8 24.387,69.429C24.112,69.798 23.712,70.052 23.142,69.713Z" style="fill:rgb(249,159,0);fill-rule:nonzero;"/>
                    <path d="M31.968,73.71C31.894,73.696 31.823,73.666 31.758,73.628C31.186,73.289 30.678,72.012 30.678,70.793C30.678,69.482 31.225,68.922 31.751,69.22L31.758,69.224C35.269,71.264 38.781,73.304 42.293,75.343C42.864,75.675 43.372,76.977 43.372,78.237C43.372,79.601 42.82,80.177 42.293,79.865C42.216,79.82 42.145,79.761 42.082,79.697C38.711,77.702 35.339,75.706 31.968,73.71Z" style="fill:rgb(246,157,0);"/>
                    <path d="M31.968,60.865C31.894,60.853 31.823,60.826 31.758,60.789C31.187,60.47 30.678,59.211 30.678,57.99C30.678,56.682 31.224,56.1 31.751,56.382L31.758,56.386C35.269,58.31 38.781,60.235 42.293,62.16C42.863,62.472 43.372,63.755 43.372,65.018C43.372,66.379 42.821,66.977 42.293,66.681C42.216,66.638 42.145,66.582 42.082,66.52C38.711,64.635 35.339,62.75 31.968,60.865Z" style="fill:rgb(246,157,0);"/>
                </g>
            </g>
            <g>
                <g>
                    <path d="M55.1,73.05C54.464,73.408 54.062,74.257 53.856,74.769C53.485,75.688 53.325,76.589 53.325,77.455C53.325,78.02 53.391,78.914 53.856,79.553C54.113,79.906 54.512,80.214 55.1,79.893C55.735,79.548 56.136,78.708 56.345,78.19C56.712,77.28 56.875,76.372 56.875,75.49C56.875,74.933 56.813,74.018 56.345,73.375C56.081,73.013 55.682,72.723 55.1,73.05ZM55.1,60.591C54.464,60.97 54.062,61.831 53.856,62.351C53.564,63.084 53.325,63.996 53.325,65.054C53.325,65.615 53.39,66.51 53.856,67.135C54.119,67.488 54.519,67.771 55.1,67.436C55.735,67.069 56.135,66.218 56.345,65.692C56.718,64.753 56.875,63.839 56.875,62.973C56.875,62.419 56.813,61.505 56.345,60.876C56.07,60.507 55.67,60.252 55.1,60.591Z" style="fill:rgb(249,159,0);fill-rule:nonzero;"/>
                    <path d="M63.926,56.594C63.852,56.608 63.781,56.638 63.715,56.677C63.144,57.015 62.636,58.292 62.636,59.512C62.636,60.823 63.183,61.383 63.709,61.084L63.715,61.08C67.227,59.04 70.739,57.001 74.251,54.961C74.822,54.629 75.33,53.328 75.33,52.067C75.33,50.703 74.778,50.127 74.251,50.439C74.173,50.485 74.103,50.544 74.04,50.607C70.669,52.603 67.297,54.598 63.926,56.594Z" style="fill:rgb(246,157,0);"/>
                    <path d="M63.926,69.439C63.852,69.451 63.781,69.479 63.715,69.515C63.145,69.834 62.636,71.093 62.636,72.315C62.636,73.623 63.181,74.205 63.709,73.922L63.715,73.919C67.227,71.994 70.739,70.069 74.251,68.145C74.821,67.832 75.33,66.549 75.33,65.286C75.33,63.926 74.779,63.327 74.251,63.623C74.174,63.666 74.103,63.722 74.04,63.784C70.669,65.669 67.297,67.554 63.926,69.439Z" style="fill:rgb(246,157,0);"/>
                </g>
            </g>
            <path id="circle-arrow" serif:id="circle arrow" d="M48.053,12.379L39.355,20.58L41.744,23.192L46.209,18.75L46.209,29.795L49.866,29.795L49.866,18.75L54.326,23.226L56.645,20.971L48.053,12.379ZM48.002,8.056C51.678,8.056 54.83,9.355 57.458,11.953C60.086,14.55 61.4,17.712 61.4,21.44C61.4,25.138 60.085,28.298 57.456,30.922C54.826,33.545 51.674,34.856 47.998,34.856C44.323,34.856 41.171,33.548 38.543,30.932C35.914,28.315 34.6,25.141 34.6,21.409C34.6,17.69 35.915,14.534 38.544,11.943C41.174,9.352 44.327,8.056 48.002,8.056Z" style="fill:rgb(246,157,0);fill-rule:nonzero;"/>
        </g>
    </g>
    <g id="_-Housekeeping-Icons" serif:id=" Housekeeping Icons">
    </g>
</svg>
