<?xml version="1.0" encoding="UTF-8" standalone="no"?>
<!DOCTYPE svg PUBLIC "-//W3C//DTD SVG 1.1//EN" "http://www.w3.org/Graphics/SVG/1.1/DTD/svg11.dtd">
<svg width="100%" height="100%" viewBox="0 0 96 96" version="1.1" xmlns="http://www.w3.org/2000/svg" xmlns:xlink="http://www.w3.org/1999/xlink" xml:space="preserve" xmlns:serif="http://www.serif.com/" style="fill-rule:evenodd;clip-rule:evenodd;stroke-linecap:round;stroke-miterlimit:1.5;">
    <g id="Housekeeping">
        <path id="Bucket" d="M26.073,88C24.414,88 22.976,87.474 21.76,86.422C20.544,85.369 19.827,84.032 19.611,82.413L13.44,36.05L60.242,36.05L54.071,82.413C53.854,84.032 53.134,85.369 51.913,86.422C50.691,87.474 49.266,88 47.638,88L26.073,88ZM25.967,84.004L47.638,84.004C48.253,84.004 48.791,83.799 49.253,83.389C49.713,82.979 49.995,82.467 50.098,81.852L55.584,40.046L17.921,40.046L23.507,81.852C23.61,82.467 23.892,82.979 24.352,83.389C24.814,83.799 25.352,84.004 25.967,84.004ZM36.793,62.025C39.566,62.025 41.926,61.054 43.873,59.111C45.819,57.169 46.793,54.81 46.793,52.035L46.793,46.04L42.797,46.04L42.797,52.035C42.797,53.679 42.209,55.089 41.033,56.266C39.857,57.441 38.447,58.029 36.802,58.029C35.158,58.029 33.748,57.441 32.572,56.266C31.396,55.089 30.808,53.679 30.808,52.035L30.808,46.04L26.812,46.04L26.812,52.035C26.812,54.81 27.782,57.169 29.723,59.111C31.664,61.054 34.021,62.025 36.793,62.025ZM48.8,27.981C47.692,27.981 46.748,27.593 45.967,26.818C45.185,26.043 44.795,25.101 44.795,23.994C44.795,22.886 45.182,21.942 45.958,21.16C46.733,20.379 47.674,19.988 48.782,19.988C49.89,19.988 50.834,20.376 51.615,21.151C52.396,21.927 52.787,22.868 52.787,23.976C52.787,25.083 52.399,26.028 51.624,26.809C50.849,27.59 49.908,27.981 48.8,27.981ZM28.81,23.985C26.628,23.985 24.75,23.198 23.178,21.626C21.604,20.053 20.818,18.162 20.818,15.954C20.818,13.746 21.604,11.868 23.178,10.321C24.75,8.774 26.64,8 28.848,8C31.057,8 32.935,8.773 34.482,10.318C36.029,11.863 36.802,13.754 36.802,15.992C36.802,18.175 36.03,20.053 34.485,21.626C32.94,23.198 31.048,23.985 28.81,23.985ZM49.944,84.004L23.661,84.004L49.944,84.004Z" style="fill:rgb(114,149,177);fill-rule:nonzero;"/>
        <path id="mop" d="M58.95,44L77.412,44C79.001,44 80.34,44.545 81.43,45.634C82.519,46.723 83.064,48.063 83.064,49.652L83.064,58.855L88.317,77.043C88.892,78.802 88.591,80.401 87.415,81.84C86.239,83.28 84.726,84 82.876,84L53.354,84L54.253,80.232L59.6,80.232L59.6,70.812C59.6,70.278 59.781,69.83 60.143,69.469C60.504,69.108 60.953,68.928 61.487,68.928C62.021,68.928 62.469,69.108 62.828,69.469C63.188,69.83 63.368,70.278 63.368,70.812L63.368,80.232L71.716,80.232L71.716,70.812C71.716,70.278 71.897,69.83 72.259,69.469C72.62,69.108 73.068,68.928 73.602,68.928C74.137,68.928 74.585,69.108 74.944,69.469C75.304,69.83 75.484,70.278 75.484,70.812L75.484,80.232L82.295,80.232C83.068,80.232 83.696,79.93 84.179,79.326C84.662,78.722 84.783,78.057 84.542,77.333L79.904,61.392L56.677,61.392L57.141,57.623L79.296,57.623L79.296,50.087C79.296,49.411 79.078,48.855 78.643,48.42C78.209,47.985 77.653,47.768 76.977,47.768L79.296,47.768L58.398,47.768L58.95,44Z" style="fill:rgb(246,157,0);"/>
        <path d="M68.277,44.652L68.277,10" style="fill:none;stroke:rgb(246,157,0);stroke-width:4px;"/>
    </g>
</svg>
