<?xml version="1.0" encoding="UTF-8" standalone="no"?>
<!DOCTYPE svg PUBLIC "-//W3C//DTD SVG 1.1//EN" "http://www.w3.org/Graphics/SVG/1.1/DTD/svg11.dtd">
<svg width="100%" height="100%" viewBox="0 0 96 96" version="1.1" xmlns="http://www.w3.org/2000/svg" xmlns:xlink="http://www.w3.org/1999/xlink" xml:space="preserve" xmlns:serif="http://www.serif.com/" style="fill-rule:evenodd;clip-rule:evenodd;stroke-miterlimit:2;">
    <g id="CPanel-icons-v2" serif:id="CPanel icons v2">
        <g id="CSS-manager-v2" serif:id="CSS manager v2">
            <path d="M61.806,33.322L61.806,30.382L65.236,30.382C65.856,30.382 66.477,30.521 67.098,30.798C67.718,31.076 68.282,31.484 68.788,32.023C69.294,32.562 69.711,33.232 70.038,34.032C70.364,34.833 70.528,35.756 70.528,36.801L70.528,45.719C70.528,46.568 70.642,47.352 70.87,48.071C71.099,48.79 71.401,49.402 71.777,49.908C72.153,50.415 72.586,50.807 73.076,51.084C73.566,51.362 74.072,51.501 74.595,51.501L74.595,54.833C74.072,54.833 73.566,54.964 73.076,55.225C72.586,55.486 72.153,55.862 71.777,56.352C71.401,56.842 71.099,57.446 70.87,58.165C70.642,58.884 70.528,59.684 70.528,60.566L70.528,69.435C70.528,70.48 70.364,71.403 70.038,72.203C69.711,73.004 69.294,73.673 68.788,74.212C68.282,74.751 67.718,75.16 67.098,75.437C66.477,75.715 65.856,75.854 65.236,75.854L61.806,75.854L61.806,72.914L64.256,72.914C64.745,72.914 65.138,72.791 65.432,72.546C65.726,72.301 65.962,71.975 66.142,71.566C66.322,71.158 66.444,70.701 66.51,70.194C66.575,69.688 66.608,69.19 66.608,68.7L66.608,59.782C66.608,58.541 66.779,57.512 67.122,56.695C67.465,55.878 67.865,55.217 68.323,54.71C68.78,54.204 69.245,53.837 69.719,53.608C70.193,53.379 70.577,53.249 70.87,53.216L70.87,53.069C70.577,53.004 70.193,52.84 69.719,52.579C69.245,52.318 68.78,51.926 68.323,51.403C67.865,50.88 67.465,50.219 67.122,49.418C66.779,48.618 66.608,47.646 66.608,46.503L66.608,37.536C66.608,37.013 66.575,36.499 66.51,35.992C66.444,35.486 66.322,35.037 66.142,34.645C65.962,34.253 65.726,33.934 65.432,33.689C65.138,33.444 64.745,33.322 64.256,33.322L61.806,33.322Z" style="fill:rgb(246,157,0);fill-rule:nonzero;"/>
            <path d="M34.219,33.322L34.219,30.382L30.789,30.382C30.168,30.382 29.547,30.521 28.927,30.798C28.306,31.076 27.742,31.484 27.236,32.023C26.73,32.562 26.313,33.232 25.987,34.032C25.66,34.833 25.497,35.756 25.497,36.801L25.497,45.719C25.497,46.568 25.382,47.352 25.154,48.071C24.925,48.79 24.623,49.402 24.247,49.908C23.871,50.415 23.439,50.807 22.949,51.084C22.459,51.362 21.952,51.501 21.43,51.501L21.43,54.833C21.952,54.833 22.459,54.964 22.949,55.225C23.439,55.486 23.871,55.862 24.247,56.352C24.623,56.842 24.925,57.446 25.154,58.165C25.382,58.884 25.497,59.684 25.497,60.566L25.497,69.435C25.497,70.48 25.66,71.403 25.987,72.203C26.313,73.004 26.73,73.673 27.236,74.212C27.742,74.751 28.306,75.16 28.927,75.437C29.547,75.715 30.168,75.854 30.789,75.854L34.219,75.854L34.219,72.914L31.769,72.914C31.279,72.914 30.887,72.791 30.593,72.546C30.299,72.301 30.062,71.975 29.882,71.566C29.702,71.158 29.58,70.701 29.515,70.194C29.449,69.688 29.417,69.19 29.417,68.7L29.417,59.782C29.417,58.541 29.245,57.512 28.902,56.695C28.559,55.878 28.159,55.217 27.702,54.71C27.244,54.204 26.779,53.837 26.305,53.608C25.831,53.379 25.448,53.249 25.154,53.216L25.154,53.069C25.448,53.004 25.831,52.84 26.305,52.579C26.779,52.318 27.244,51.926 27.702,51.403C28.159,50.88 28.559,50.219 28.902,49.418C29.245,48.618 29.417,47.646 29.417,46.503L29.417,37.536C29.417,37.013 29.449,36.499 29.515,35.992C29.58,35.486 29.702,35.037 29.882,34.645C30.062,34.253 30.299,33.934 30.593,33.689C30.887,33.444 31.279,33.322 31.769,33.322L34.219,33.322Z" style="fill:rgb(246,157,0);fill-rule:nonzero;"/>
            <path d="M51.433,19.971L76.232,19.971C79.031,19.971 81.3,22.209 81.3,24.971L81.3,80.732C81.3,83.493 79.031,85.732 76.232,85.732L19.747,85.732C16.948,85.732 14.678,83.493 14.678,80.732L14.678,24.971C14.678,22.209 16.948,19.971 19.747,19.971L43.804,19.971" style="fill:none;stroke:rgb(114,149,177);stroke-width:4.5px;"/>
            <circle cx="48" cy="15.6" r="5.784" style="fill:none;stroke:rgb(114,149,177);stroke-width:4.5px;"/>
        </g>
    </g>
    <g id="_-Housekeeping-Icons" serif:id=" Housekeeping Icons">
    </g>
</svg>
