<?xml version="1.0" encoding="UTF-8" standalone="no"?>
<!DOCTYPE svg PUBLIC "-//W3C//DTD SVG 1.1//EN" "http://www.w3.org/Graphics/SVG/1.1/DTD/svg11.dtd">
<svg width="100%" height="100%" viewBox="0 0 96 96" version="1.1" xmlns="http://www.w3.org/2000/svg" xmlns:xlink="http://www.w3.org/1999/xlink" xml:space="preserve" xmlns:serif="http://www.serif.com/" style="fill-rule:evenodd;clip-rule:evenodd;stroke-miterlimit:2;">
    <g id="CPanel-icons-v2" serif:id="CPanel icons v2">
        <g id="CSS-manager-v2" serif:id="CSS manager v2">
            <path d="M58.806,35.269L58.806,32.618L62.236,32.618C62.856,32.618 63.477,32.743 64.097,32.993C64.718,33.244 65.282,33.612 65.788,34.098C66.294,34.584 66.711,35.188 67.038,35.909C67.364,36.631 67.528,37.463 67.528,38.406L67.528,46.447C67.528,47.212 67.642,47.919 67.87,48.567C68.099,49.215 68.401,49.768 68.777,50.224C69.153,50.681 69.586,51.034 70.076,51.284C70.566,51.535 71.072,51.66 71.595,51.66L71.595,54.664C71.072,54.664 70.566,54.782 70.076,55.018C69.586,55.253 69.153,55.592 68.777,56.034C68.401,56.476 68.099,57.021 67.87,57.669C67.642,58.317 67.528,59.038 67.528,59.833L67.528,67.83C67.528,68.773 67.364,69.605 67.038,70.326C66.711,71.048 66.294,71.652 65.788,72.138C65.282,72.624 64.718,72.992 64.097,73.242C63.477,73.493 62.856,73.618 62.236,73.618L58.806,73.618L58.806,70.967L61.256,70.967C61.746,70.967 62.138,70.857 62.432,70.636C62.725,70.415 62.962,70.12 63.142,69.752C63.322,69.384 63.444,68.972 63.51,68.515C63.575,68.058 63.608,67.609 63.608,67.167L63.608,59.127C63.608,58.007 63.779,57.079 64.122,56.343C64.465,55.607 64.865,55.01 65.323,54.554C65.78,54.097 66.245,53.766 66.719,53.56C67.193,53.354 67.577,53.236 67.87,53.206L67.87,53.074C67.577,53.015 67.193,52.868 66.719,52.632C66.245,52.396 65.78,52.043 65.323,51.572C64.865,51.1 64.465,50.504 64.122,49.782C63.779,49.061 63.608,48.184 63.608,47.153L63.608,39.068C63.608,38.597 63.575,38.133 63.51,37.677C63.444,37.22 63.322,36.815 63.142,36.462C62.962,36.108 62.725,35.821 62.432,35.6C62.138,35.379 61.746,35.269 61.256,35.269L58.806,35.269Z" style="fill:rgb(246,157,0);fill-rule:nonzero;"/>
            <path d="M37.219,35.269L37.219,32.618L33.789,32.618C33.168,32.618 32.547,32.743 31.927,32.993C31.306,33.244 30.742,33.612 30.236,34.098C29.73,34.584 29.313,35.188 28.987,35.909C28.66,36.631 28.497,37.463 28.497,38.406L28.497,46.447C28.497,47.212 28.382,47.919 28.154,48.567C27.925,49.215 27.623,49.768 27.247,50.224C26.871,50.681 26.439,51.034 25.949,51.284C25.459,51.535 24.952,51.66 24.43,51.66L24.43,54.664C24.952,54.664 25.459,54.782 25.949,55.018C26.439,55.253 26.871,55.592 27.247,56.034C27.623,56.476 27.925,57.021 28.154,57.669C28.382,58.317 28.497,59.038 28.497,59.833L28.497,67.83C28.497,68.773 28.66,69.605 28.987,70.326C29.313,71.048 29.73,71.652 30.236,72.138C30.742,72.624 31.306,72.992 31.927,73.242C32.547,73.493 33.168,73.618 33.789,73.618L37.219,73.618L37.219,70.967L34.769,70.967C34.279,70.967 33.887,70.857 33.593,70.636C33.299,70.415 33.062,70.12 32.882,69.752C32.702,69.384 32.58,68.972 32.515,68.515C32.449,68.058 32.417,67.609 32.417,67.167L32.417,59.127C32.417,58.007 32.245,57.079 31.902,56.343C31.559,55.607 31.159,55.01 30.702,54.554C30.244,54.097 29.779,53.766 29.305,53.56C28.831,53.354 28.448,53.236 28.154,53.206L28.154,53.074C28.448,53.015 28.831,52.868 29.305,52.632C29.779,52.396 30.244,52.043 30.702,51.572C31.159,51.1 31.559,50.504 31.902,49.782C32.245,49.061 32.417,48.184 32.417,47.153L32.417,39.068C32.417,38.597 32.449,38.133 32.515,37.677C32.58,37.22 32.702,36.815 32.882,36.462C33.062,36.108 33.299,35.821 33.593,35.6C33.887,35.379 34.279,35.269 34.769,35.269L37.219,35.269Z" style="fill:rgb(246,157,0);fill-rule:nonzero;"/>
            <path d="M51.433,19.971L76.232,19.971C79.031,19.971 81.3,22.209 81.3,24.971L81.3,80.732C81.3,83.493 79.031,85.732 76.232,85.732L19.747,85.732C16.948,85.732 14.678,83.493 14.678,80.732L14.678,24.971C14.678,22.209 16.948,19.971 19.747,19.971L43.804,19.971" style="fill:none;stroke:rgb(114,149,177);stroke-width:4.5px;"/>
            <circle cx="48" cy="15.6" r="5.784" style="fill:none;stroke:rgb(114,149,177);stroke-width:4.5px;"/>
        </g>
    </g>
</svg>
