<?xml version="1.0" encoding="UTF-8" standalone="no"?><!DOCTYPE svg PUBLIC "-//W3C//DTD SVG 1.1//EN" "http://www.w3.org/Graphics/SVG/1.1/DTD/svg11.dtd"><svg width="96px" height="96px" version="1.1" xmlns="http://www.w3.org/2000/svg" xmlns:xlink="http://www.w3.org/1999/xlink" xml:space="preserve" xmlns:serif="http://www.serif.com/" style="fill-rule:evenodd;clip-rule:evenodd;stroke-miterlimit:2;"><g id="v1"></g><g id="final"><g id="export-v2" serif:id="export v2"><g><path d="M78.15,73.457L78.15,80.732C78.15,83.493 75.911,85.732 73.15,85.732L17.428,85.732C14.667,85.732 12.428,83.493 12.428,80.732L12.428,24.971C12.428,22.209 14.667,19.971 17.428,19.971L73.15,19.971C75.911,19.971 78.15,22.209 78.15,24.971L78.15,47.954" style="fill:none;stroke:rgb(114,149,177);stroke-width:4.5px;"/><path d="M37.523,61.221L80.35,61.172M65.935,76.088L80.4,61.221L65.966,47.202" style="fill:none;stroke:rgb(114,149,177);stroke-width:4.5px;"/><path d="M24.4,35.602C23.461,35.602 22.643,35.253 21.945,34.556C21.248,33.859 20.9,33.041 20.9,32.102C20.9,31.163 21.248,30.345 21.945,29.648C22.643,28.951 23.461,28.603 24.4,28.603C25.339,28.603 26.157,28.951 26.855,29.648C27.552,30.345 27.9,31.163 27.9,32.102C27.9,33.041 27.552,33.859 26.855,34.556C26.157,35.253 25.339,35.602 24.4,35.602ZM24.4,49.467C23.461,49.467 22.643,49.119 21.945,48.422C21.248,47.725 20.9,46.907 20.9,45.967C20.9,45.029 21.248,44.21 21.945,43.513C22.643,42.816 23.461,42.467 24.4,42.467C25.339,42.467 26.157,42.816 26.855,43.513C27.552,44.21 27.9,45.029 27.9,45.967C27.9,46.907 27.552,47.725 26.855,48.422C26.157,49.119 25.339,49.467 24.4,49.467ZM24.4,63.234C23.461,63.234 22.643,62.885 21.945,62.189C21.248,61.492 20.9,60.673 20.9,59.734C20.9,58.795 21.248,57.977 21.945,57.28C22.643,56.583 23.461,56.235 24.4,56.235C25.339,56.235 26.157,56.583 26.855,57.28C27.552,57.977 27.9,58.795 27.9,59.734C27.9,60.673 27.552,61.492 26.855,62.189C26.157,62.885 25.339,63.234 24.4,63.234ZM24.4,77.1C23.461,77.1 22.643,76.751 21.945,76.054C21.248,75.357 20.9,74.539 20.9,73.6C20.9,72.661 21.248,71.843 21.945,71.145C22.643,70.448 23.461,70.1 24.4,70.1C25.339,70.1 26.157,70.448 26.855,71.145C27.552,71.843 27.9,72.661 27.9,73.6C27.9,74.539 27.552,75.357 26.855,76.054C26.157,76.751 25.339,77.1 24.4,77.1Z" style="fill:rgb(249,159,0);"/></g></g></g></svg>