<?xml version="1.0" encoding="UTF-8" standalone="no"?>
<!DOCTYPE svg PUBLIC "-//W3C//DTD SVG 1.1//EN" "http://www.w3.org/Graphics/SVG/1.1/DTD/svg11.dtd">
<svg width="100%" height="100%" viewBox="0 0 96 96" version="1.1" xmlns="http://www.w3.org/2000/svg" xmlns:xlink="http://www.w3.org/1999/xlink" xml:space="preserve" xmlns:serif="http://www.serif.com/" style="fill-rule:evenodd;clip-rule:evenodd;stroke-linejoin:round;stroke-miterlimit:2;">
    <g id="help">
        <path d="M47.939,71.835C49.019,71.835 49.93,71.464 50.673,70.722C51.415,69.979 51.786,69.068 51.786,67.988C51.786,66.908 51.415,65.997 50.673,65.254C49.93,64.512 49.019,64.14 47.939,64.14C46.859,64.14 45.948,64.512 45.205,65.254C44.463,65.997 44.091,66.908 44.091,67.988C44.091,69.068 44.463,69.979 45.205,70.722C45.948,71.464 46.859,71.835 47.939,71.835ZM44.395,57.053L50.369,57.053C50.369,55.298 50.588,53.695 51.027,52.243C51.466,50.792 52.833,49.122 55.128,47.232C57.22,45.477 58.705,43.755 59.583,42.068C60.46,40.38 60.899,38.524 60.899,36.499C60.899,32.922 59.735,30.053 57.406,27.893C55.077,25.733 51.989,24.653 48.141,24.653C44.834,24.653 41.915,25.48 39.383,27.133C36.852,28.787 35.013,31.065 33.865,33.968L39.231,35.993C39.974,34.103 41.088,32.635 42.573,31.588C44.058,30.542 45.813,30.019 47.838,30.019C50.133,30.019 51.989,30.643 53.406,31.892C54.824,33.141 55.533,34.744 55.533,36.702C55.533,38.187 55.094,39.587 54.216,40.903C53.339,42.22 52.056,43.587 50.369,45.004C48.344,46.759 46.842,48.497 45.863,50.218C44.885,51.94 44.395,54.218 44.395,57.053Z" style="fill:rgb(246,157,0);fill-rule:nonzero;"/>
        <path d="M47.534,88.744C41.999,88.744 36.768,87.681 31.84,85.555C26.913,83.428 22.61,80.526 18.931,76.847C15.252,73.168 12.35,68.865 10.223,63.938C8.097,59.01 7.034,53.779 7.034,48.244C7.034,42.642 8.097,37.377 10.223,32.449C12.35,27.522 15.252,23.235 18.931,19.59C22.61,15.945 26.913,13.06 31.84,10.933C36.768,8.807 41.999,7.744 47.534,7.744C53.136,7.744 58.401,8.807 63.329,10.933C68.256,13.06 72.543,15.945 76.188,19.59C79.833,23.235 82.718,27.522 84.845,32.449C86.971,37.377 88.034,42.642 88.034,48.244C88.034,53.779 86.971,59.01 84.845,63.938C82.718,68.865 79.833,73.168 76.188,76.847C72.543,80.526 68.256,83.428 63.329,85.555C58.401,87.681 53.136,88.744 47.534,88.744ZM47.534,82.669C57.119,82.669 65.253,79.311 71.935,72.595C78.618,65.878 81.959,57.762 81.959,48.244C81.959,38.659 78.618,30.525 71.935,23.843C65.253,17.16 57.119,13.819 47.534,13.819C38.016,13.819 29.9,17.16 23.183,23.843C16.467,30.525 13.109,38.659 13.109,48.244C13.109,57.762 16.467,65.878 23.183,72.595C29.9,79.311 38.016,82.669 47.534,82.669Z" style="fill:rgb(114,149,177);fill-rule:nonzero;"/>
    </g>
</svg>
