<?xml version="1.0" encoding="UTF-8" standalone="no"?>
<!DOCTYPE svg PUBLIC "-//W3C//DTD SVG 1.1//EN" "http://www.w3.org/Graphics/SVG/1.1/DTD/svg11.dtd">
<svg width="100%" height="100%" viewBox="0 0 96 96" version="1.1" xmlns="http://www.w3.org/2000/svg" xmlns:xlink="http://www.w3.org/1999/xlink" xml:space="preserve" xmlns:serif="http://www.serif.com/" style="fill-rule:evenodd;clip-rule:evenodd;stroke-miterlimit:2;">
    <g id="_-Housekeeping-Icons" serif:id=" Housekeeping Icons">
        <g id="Delete-all-JEM-data-v2" serif:id="Delete all JEM data v2">
            <g>
                <g>
                    <path d="M88.524,36.143L42.652,16.671" style="fill:none;stroke:rgb(225,0,26);stroke-width:3.5px;"/>
                    <path d="M76.819,27.89L56.72,19.358" style="fill:none;stroke:rgb(225,0,26);stroke-width:3.5px;"/>
                </g>
                <path d="M81.806,38.494L81.806,83.68C81.806,84.21 81.595,84.719 81.22,85.094C80.845,85.469 80.336,85.68 79.805,85.68C73.629,85.676 54.909,85.665 48.735,85.662C47.631,85.661 46.737,84.766 46.737,83.662C46.737,74.681 46.737,38.494 46.737,38.494" style="fill:none;stroke:rgb(225,0,26);stroke-width:3.5px;"/>
                <path d="M75.304,49.314L53.324,71.294M75.304,71.294L53.324,49.314" style="fill:none;stroke:rgb(225,0,26);stroke-width:3.5px;"/>
            </g>
            <g id="Home">
                <g>
                    <path d="M13.251,83.196C14.171,83.196 14.973,82.855 15.656,82.172C16.339,81.489 16.68,80.688 16.68,79.767C16.68,78.848 16.339,78.046 15.656,77.364C14.973,76.681 14.171,76.34 13.251,76.34C12.332,76.34 11.53,76.681 10.846,77.364C10.164,78.046 9.822,78.848 9.822,79.767C9.822,80.688 10.164,81.489 10.846,82.172C11.53,82.855 12.332,83.196 13.251,83.196Z" style="fill:rgb(114,149,177);fill-rule:nonzero;"/>
                </g>
                <g>
                    <path d="M19.138,62.613L12.275,62.613" style="fill:none;stroke:rgb(246,157,0);stroke-width:5.29px;stroke-linecap:round;"/>
                    <path d="M18.525,66.041C19.445,66.041 20.246,65.7 20.93,65.017C21.612,64.334 21.954,63.533 21.954,62.612C21.954,61.693 21.612,60.891 20.93,60.209C20.246,59.526 19.445,59.185 18.525,59.185C17.605,59.185 16.803,59.526 16.12,60.209C15.437,60.891 15.096,61.693 15.096,62.612C15.096,63.533 15.437,64.334 16.12,65.017C16.803,65.7 17.605,66.041 18.525,66.041Z" style="fill:rgb(114,149,177);fill-rule:nonzero;"/>
                </g>
                <g>
                    <path d="M26,45.458L12.275,45.458" style="fill:none;stroke:rgb(246,157,0);stroke-width:5.29px;stroke-linecap:round;"/>
                    <path d="M26.525,48.886C27.445,48.886 28.246,48.545 28.93,47.862C29.612,47.179 29.954,46.378 29.954,45.457C29.954,44.538 29.612,43.736 28.93,43.054C28.246,42.371 27.445,42.03 26.525,42.03C25.605,42.03 24.803,42.371 24.12,43.054C23.437,43.736 23.096,44.538 23.096,45.457C23.096,46.378 23.437,47.179 24.12,47.862C24.803,48.545 25.605,48.886 26.525,48.886Z" style="fill:rgb(114,149,177);fill-rule:nonzero;"/>
                </g>
                <g>
                    <path d="M36.399,28.258L12.275,28.258" style="fill:none;stroke:rgb(246,157,0);stroke-width:5.29px;stroke-linecap:round;"/>
                    <path d="M38.251,31.686C39.171,31.686 39.973,31.345 40.656,30.662C41.339,29.979 41.68,29.178 41.68,28.257C41.68,27.338 41.339,26.536 40.656,25.854C39.973,25.171 39.171,24.83 38.251,24.83C37.332,24.83 36.53,25.171 35.846,25.854C35.164,26.536 34.822,27.338 34.822,28.257C34.822,29.178 35.164,29.979 35.846,30.662C36.53,31.345 37.332,31.686 38.251,31.686Z" style="fill:rgb(114,149,177);fill-rule:nonzero;"/>
                </g>
            </g>
        </g>
    </g>
</svg>
