<?xml version="1.0" encoding="UTF-8" standalone="no"?><!DOCTYPE svg PUBLIC "-//W3C//DTD SVG 1.1//EN" "http://www.w3.org/Graphics/SVG/1.1/DTD/svg11.dtd"><svg width="100%" height="100%" viewBox="0 0 2690 978" version="1.1" xmlns="http://www.w3.org/2000/svg" xmlns:xlink="http://www.w3.org/1999/xlink" xml:space="preserve" xmlns:serif="http://www.serif.com/" style="fill-rule:evenodd;clip-rule:evenodd;stroke-linecap:round;stroke-miterlimit:2;"><g id="ArtBoard1" transform="matrix(0.987411,0,0,0.977738,-103.718,0)"><rect x="105.04" y="0" width="2723.75" height="1000" style="fill:none;"/><clipPath id="_clip1"><rect x="105.04" y="0" width="2723.75" height="1000"/></clipPath><g clip-path="url(#_clip1)"><g id="svg" transform="matrix(1.01275,0,0,1.02277,-57.3973,0)"><g transform="matrix(0.968339,0,0,0.97812,192.721,937.581)"><path d="M38.667,-36.667L95.066,-36.667L67.2,-81.2L38.667,-36.667ZM102.8,-25.333L31.333,-25.333L15.867,-2.267C15.156,-1.289 14.311,-0.556 13.333,-0.067C12.356,0.422 11.467,0.667 10.667,0.667C8.8,0.667 7.156,0.067 5.733,-1.133C4.311,-2.333 3.6,-3.822 3.6,-5.6C3.6,-6.756 3.911,-7.911 4.533,-9.067L58,-89.2C59.155,-90.889 60.511,-92.133 62.067,-92.933C63.622,-93.733 65.244,-94.133 66.933,-94.133C68.622,-94.133 70.244,-93.733 71.8,-92.933C73.355,-92.133 74.666,-90.889 75.733,-89.2L129.466,-9.2C130,-8.578 130.333,-7.933 130.466,-7.267C130.6,-6.6 130.666,-6.044 130.666,-5.6C130.666,-3.733 129.977,-2.267 128.6,-1.2C127.222,-0.133 125.6,0.4 123.733,0.4C122.844,0.4 121.889,0.156 120.866,-0.333C119.844,-0.822 118.933,-1.556 118.133,-2.533L102.8,-25.333Z" style="fill-rule:nonzero;"/><path d="M243.199,-5.067C243.199,-1.244 241.022,0.667 236.666,0.667C232.222,0.667 229.999,-1.244 229.999,-5.067L229.999,-51.867C229.999,-57.644 224.177,-60.533 212.533,-60.533L180,-60.533C168.088,-60.533 162.133,-57.644 162.133,-51.867L162.133,-5.067C162.133,-1.244 160,0.667 155.733,0.667C151.377,0.667 149.2,-1.244 149.2,-5.067L149.2,-51.867C149.2,-64.755 160.666,-71.2 183.6,-71.2L208.666,-71.2C231.688,-71.2 243.199,-64.755 243.199,-51.867L243.199,-5.067Z" style="fill-rule:nonzero;"/><path d="M332.533,-51.867L414.532,-51.867C417.732,-51.867 419.332,-49.955 419.332,-46.133C419.332,-42.4 417.732,-40.533 414.532,-40.533L332.533,-40.533L332.533,-23.067C332.533,-15.156 340.088,-11.2 355.199,-11.2L414.532,-11.2C417.91,-11.2 419.599,-9.333 419.599,-5.6C419.599,-1.867 417.91,0 414.532,0L354.666,0C330.577,0 318.533,-7.467 318.533,-22.4L318.533,-70.133C318.533,-77.778 321.644,-83.533 327.866,-87.4C334.088,-91.266 343.466,-93.2 355.999,-93.2L372.266,-93.2C375.466,-93.2 377.066,-91.289 377.066,-87.466C377.066,-83.911 375.466,-82.133 372.266,-82.133L361.333,-82.133C342.133,-82.133 332.533,-78.133 332.533,-70.133L332.533,-51.867Z" style="fill-rule:nonzero;"/><path d="M494.132,-2.267C492.532,-0.311 490.844,0.667 489.066,0.667C487.377,0.667 485.866,-0.222 484.533,-2L436.266,-63.733C435.466,-64.711 435.066,-65.867 435.066,-67.2C435.066,-68.711 435.733,-70.044 437.066,-71.2C438.399,-72.355 439.822,-72.933 441.333,-72.933C442.222,-72.933 443.088,-72.755 443.933,-72.4C444.777,-72.044 445.466,-71.466 445.999,-70.666L489.332,-14L532.532,-70.933C533.421,-72.089 534.755,-72.666 536.532,-72.666C537.332,-72.666 538.177,-72.555 539.066,-72.333C539.955,-72.111 540.755,-71.711 541.466,-71.133C542.177,-70.555 542.777,-69.933 543.266,-69.266C543.755,-68.6 543.999,-67.911 543.999,-67.2C543.999,-66.133 543.51,-64.978 542.532,-63.733L494.132,-2.267Z" style="fill-rule:nonzero;"/><path d="M579.866,-40.4L649.465,-40.4L649.465,-50.933C649.465,-57.333 644.488,-60.533 634.532,-60.533L599.732,-60.533C586.488,-60.533 579.866,-57.155 579.866,-50.4L579.866,-40.4ZM661.999,-35.2C661.999,-31.2 660.088,-29.2 656.265,-29.2L579.866,-29.2L579.866,-20.4C579.866,-14 586.488,-10.8 599.732,-10.8L613.999,-10.8C617.643,-10.8 619.465,-9.022 619.465,-5.467C619.465,-1.822 617.643,0 613.999,0L603.066,0C578.977,0 566.932,-7.333 566.932,-22L566.932,-49.333C566.932,-63.911 578.843,-71.2 602.666,-71.2L631.999,-71.2C651.999,-71.2 661.999,-64.889 661.999,-52.267L661.999,-35.2Z" style="fill-rule:nonzero;"/><path d="M780.132,-5.067C780.132,-1.244 777.954,0.667 773.599,0.667C769.154,0.667 766.932,-1.244 766.932,-5.067L766.932,-51.867C766.932,-57.644 761.11,-60.533 749.465,-60.533L716.932,-60.533C705.021,-60.533 699.066,-57.644 699.066,-51.867L699.066,-5.067C699.066,-1.244 696.932,0.667 692.666,0.667C688.31,0.667 686.132,-1.244 686.132,-5.067L686.132,-51.867C686.132,-64.755 697.599,-71.2 720.532,-71.2L745.599,-71.2C768.621,-71.2 780.132,-64.755 780.132,-51.867L780.132,-5.067Z" style="fill-rule:nonzero;"/><path d="M821.999,-60.533L821.999,-5.067C821.999,-1.244 819.91,0.667 815.732,0.667C811.377,0.667 809.199,-1.244 809.199,-5.067L809.199,-60.533L802.799,-60.533C799.243,-60.533 797.466,-62.355 797.466,-66C797.466,-69.466 799.243,-71.2 802.799,-71.2L809.199,-71.2L809.199,-88.133C809.199,-91.955 811.421,-93.866 815.866,-93.866C819.954,-93.866 821.999,-91.955 821.999,-88.133L821.999,-71.2L847.999,-71.2C851.554,-71.2 853.332,-69.422 853.332,-65.867C853.332,-62.311 851.554,-60.533 847.999,-60.533L821.999,-60.533Z" style="fill-rule:nonzero;"/><path d="M1067.87,-5.2C1067.87,-1.289 1065.51,0.667 1060.8,0.667C1056.36,0.667 1054.13,-1.289 1054.13,-5.2L1054.13,-73.2L1002.13,-4.133C999.647,-0.933 996.491,0.667 992.669,0.667C990.535,0.667 988.691,0.267 987.135,-0.533C985.58,-1.333 984.18,-2.533 982.935,-4.133L930.002,-72.933L930.002,-5.2C930.002,-1.289 927.78,0.667 923.336,0.667C918.713,0.667 916.402,-1.289 916.402,-5.2L916.402,-85.866C916.402,-91.2 918.98,-93.866 924.136,-93.866C927.78,-93.866 930.847,-92.222 933.336,-88.933L992.802,-13.067L1051.2,-89.733C1052.18,-91.066 1053.42,-92.089 1054.93,-92.8C1056.45,-93.511 1058.05,-93.866 1059.74,-93.866C1065.16,-93.866 1067.87,-91.111 1067.87,-85.6L1067.87,-5.2Z" style="fill-rule:nonzero;"/><path d="M1175.86,-39.2L1116.26,-39.2C1106.13,-39.2 1101.06,-36 1101.06,-29.6L1101.06,-19.867C1101.06,-13.822 1106.48,-10.8 1117.33,-10.8L1160.13,-10.8C1170.62,-10.8 1175.86,-15.378 1175.86,-24.533L1175.86,-39.2ZM1188.13,-20.8C1188.13,-6.933 1178.04,0 1157.86,0L1119.86,0C1098.53,0 1087.86,-6.667 1087.86,-20L1087.86,-29.2C1087.86,-43.067 1098.31,-50 1119.2,-50L1175.73,-50C1174.84,-57.022 1169.55,-60.533 1159.86,-60.533L1144.13,-60.533C1141.02,-60.533 1139.46,-62.355 1139.46,-66C1139.46,-69.466 1141.02,-71.2 1144.13,-71.2L1157.86,-71.2C1178.04,-71.2 1188.13,-64.089 1188.13,-49.867L1188.13,-20.8Z" style="fill-rule:nonzero;"/><path d="M1307.6,-5.067C1307.6,-1.244 1305.42,0.667 1301.07,0.667C1296.62,0.667 1294.4,-1.244 1294.4,-5.067L1294.4,-51.867C1294.4,-57.644 1288.58,-60.533 1276.93,-60.533L1244.4,-60.533C1232.49,-60.533 1226.54,-57.644 1226.54,-51.867L1226.54,-5.067C1226.54,-1.244 1224.4,0.667 1220.14,0.667C1215.78,0.667 1213.6,-1.244 1213.6,-5.067L1213.6,-51.867C1213.6,-64.755 1225.07,-71.2 1248,-71.2L1273.07,-71.2C1296.09,-71.2 1307.6,-64.755 1307.6,-51.867L1307.6,-5.067Z" style="fill-rule:nonzero;"/><path d="M1415.6,-39.2L1356,-39.2C1345.87,-39.2 1340.8,-36 1340.8,-29.6L1340.8,-19.867C1340.8,-13.822 1346.22,-10.8 1357.07,-10.8L1399.87,-10.8C1410.36,-10.8 1415.6,-15.378 1415.6,-24.533L1415.6,-39.2ZM1427.87,-20.8C1427.87,-6.933 1417.78,0 1397.6,0L1359.6,0C1338.27,0 1327.6,-6.667 1327.6,-20L1327.6,-29.2C1327.6,-43.067 1338.05,-50 1358.94,-50L1415.47,-50C1414.58,-57.022 1409.29,-60.533 1399.6,-60.533L1383.87,-60.533C1380.76,-60.533 1379.2,-62.355 1379.2,-66C1379.2,-69.466 1380.76,-71.2 1383.87,-71.2L1397.6,-71.2C1417.78,-71.2 1427.87,-64.089 1427.87,-49.867L1427.87,-20.8Z" style="fill-rule:nonzero;"/><path d="M1535.2,-10.8L1535.2,-48.667C1535.2,-56.578 1528.31,-60.533 1514.53,-60.533L1485.47,-60.533C1472.67,-60.533 1466.27,-56.978 1466.27,-49.867L1466.27,-21.6C1466.27,-14.4 1473.69,-10.8 1488.53,-10.8L1535.2,-10.8ZM1548.4,-1.067C1548.4,13.156 1536.62,20.267 1513.07,20.267L1502.4,20.267C1498.66,20.267 1496.8,18.533 1496.8,15.067C1496.8,11.511 1498.66,9.733 1502.4,9.733L1514.66,9.733C1528.62,9.733 1535.6,6.8 1535.6,0.933L1535.6,0L1491.07,0C1465.91,0 1453.33,-7.156 1453.33,-21.467L1453.33,-49.6C1453.33,-64 1464.8,-71.2 1487.73,-71.2L1510.93,-71.2C1535.91,-71.2 1548.4,-63.955 1548.4,-49.467L1548.4,-1.067Z" style="fill-rule:nonzero;"/><path d="M1586,-40.4L1655.6,-40.4L1655.6,-50.933C1655.6,-57.333 1650.62,-60.533 1640.66,-60.533L1605.86,-60.533C1592.62,-60.533 1586,-57.155 1586,-50.4L1586,-40.4ZM1668.13,-35.2C1668.13,-31.2 1666.22,-29.2 1662.39,-29.2L1586,-29.2L1586,-20.4C1586,-14 1592.62,-10.8 1605.86,-10.8L1620.13,-10.8C1623.77,-10.8 1625.6,-9.022 1625.6,-5.467C1625.6,-1.822 1623.77,0 1620.13,0L1609.2,0C1585.11,0 1573.06,-7.333 1573.06,-22L1573.06,-49.333C1573.06,-63.911 1584.97,-71.2 1608.8,-71.2L1638.13,-71.2C1658.13,-71.2 1668.13,-64.889 1668.13,-52.267L1668.13,-35.2Z" style="fill-rule:nonzero;"/><path d="M1723.86,-60.533C1711.51,-60.533 1705.33,-56.889 1705.33,-49.6L1705.33,-5.067C1705.33,-1.244 1703.15,0.667 1698.8,0.667C1694.44,0.667 1692.26,-1.244 1692.26,-5.067L1692.26,-49.6C1692.26,-64 1703.24,-71.2 1725.2,-71.2L1731.06,-71.2C1734.35,-71.2 1736,-69.422 1736,-65.867C1736,-62.311 1734.62,-60.533 1731.86,-60.533L1723.86,-60.533Z" style="fill-rule:nonzero;"/><path d="M1832.4,-82.266C1822.71,-82.266 1817.77,-78.578 1817.6,-71.2L1843.2,-71.2C1846.39,-71.2 1848,-69.466 1848,-66C1848,-62.355 1846.39,-60.533 1843.2,-60.533L1817.6,-60.533L1817.6,-5.067C1817.6,-1.244 1815.51,0.667 1811.33,0.667C1807.06,0.667 1804.93,-1.244 1804.93,-5.067L1804.93,-71.2C1804.93,-85.511 1814.97,-92.666 1835.06,-92.666L1842.93,-92.666C1846.31,-92.666 1848,-90.889 1848,-87.333C1848,-83.955 1846.35,-82.266 1843.06,-82.266L1832.4,-82.266Z" style="fill-rule:nonzero;"/><path d="M1940.4,-50.267C1940.4,-57.111 1934.31,-60.533 1922.13,-60.533L1892.53,-60.533C1879.29,-60.533 1872.67,-56.711 1872.67,-49.067L1872.67,-21.6C1872.67,-14.4 1879.29,-10.8 1892.53,-10.8L1922.13,-10.8C1934.31,-10.8 1940.4,-14.4 1940.4,-21.6L1940.4,-50.267ZM1953.73,-21.6C1953.73,-7.2 1942.53,0 1920.13,0L1894,0C1871.15,0 1859.73,-7.2 1859.73,-21.6L1859.73,-49.067C1859.73,-63.822 1871.29,-71.2 1894.4,-71.2L1920.13,-71.2C1942.53,-71.2 1953.73,-63.867 1953.73,-49.2L1953.73,-21.6Z" style="fill-rule:nonzero;"/><path d="M2010.13,-60.533C1997.78,-60.533 1991.6,-56.889 1991.6,-49.6L1991.6,-5.067C1991.6,-1.244 1989.42,0.667 1985.07,0.667C1980.71,0.667 1978.53,-1.244 1978.53,-5.067L1978.53,-49.6C1978.53,-64 1989.51,-71.2 2011.47,-71.2L2017.33,-71.2C2020.62,-71.2 2022.27,-69.422 2022.27,-65.867C2022.27,-62.311 2020.89,-60.533 2018.13,-60.533L2010.13,-60.533Z" style="fill-rule:nonzero;"/><path d="M2127.2,-26.667C2127.2,-8.889 2115.47,0 2092,0L2084,0C2080.27,0 2078.4,-1.867 2078.4,-5.6C2078.4,-9.333 2080.27,-11.2 2084,-11.2L2092,-11.2C2106.22,-11.2 2113.33,-16.044 2113.33,-25.733L2113.33,-88C2113.33,-91.911 2115.64,-93.866 2120.27,-93.866C2124.89,-93.866 2127.2,-91.911 2127.2,-88L2127.2,-26.667Z" style="fill-rule:nonzero;"/><path d="M2232.67,-50.267C2232.67,-57.111 2226.58,-60.533 2214.4,-60.533L2184.8,-60.533C2171.56,-60.533 2164.94,-56.711 2164.94,-49.067L2164.94,-21.6C2164.94,-14.4 2171.56,-10.8 2184.8,-10.8L2214.4,-10.8C2226.58,-10.8 2232.67,-14.4 2232.67,-21.6L2232.67,-50.267ZM2246,-21.6C2246,-7.2 2234.8,0 2212.4,0L2186.27,0C2163.42,0 2152,-7.2 2152,-21.6L2152,-49.067C2152,-63.822 2163.56,-71.2 2186.67,-71.2L2212.4,-71.2C2234.8,-71.2 2246,-63.867 2246,-49.2L2246,-21.6Z" style="fill-rule:nonzero;"/><path d="M2351.47,-50.267C2351.47,-57.111 2345.38,-60.533 2333.2,-60.533L2303.6,-60.533C2290.36,-60.533 2283.74,-56.711 2283.74,-49.067L2283.74,-21.6C2283.74,-14.4 2290.36,-10.8 2303.6,-10.8L2333.2,-10.8C2345.38,-10.8 2351.47,-14.4 2351.47,-21.6L2351.47,-50.267ZM2364.8,-21.6C2364.8,-7.2 2353.6,0 2331.2,0L2305.07,0C2282.22,0 2270.8,-7.2 2270.8,-21.6L2270.8,-49.067C2270.8,-63.822 2282.36,-71.2 2305.47,-71.2L2331.2,-71.2C2353.6,-71.2 2364.8,-63.867 2364.8,-49.2L2364.8,-21.6Z" style="fill-rule:nonzero;"/><path d="M2520.67,-5.067C2520.67,-1.244 2518.49,0.667 2514.14,0.667C2509.87,0.667 2507.74,-1.244 2507.74,-5.067L2507.74,-50.4C2507.74,-57.155 2500.71,-60.533 2486.67,-60.533C2470.05,-60.533 2461.74,-56.489 2461.74,-48.4L2461.74,-5.067C2461.74,-1.244 2459.65,0.667 2455.47,0.667C2450.93,0.667 2448.67,-1.244 2448.67,-5.067L2448.67,-48.4C2448.67,-56.489 2440.4,-60.533 2423.87,-60.533C2409.65,-60.533 2402.54,-57.111 2402.54,-50.267L2402.54,-5.067C2402.54,-1.244 2400.36,0.667 2396,0.667C2391.74,0.667 2389.6,-1.244 2389.6,-5.067L2389.6,-48.667C2389.6,-63.689 2401.02,-71.2 2423.87,-71.2C2440.67,-71.2 2451.29,-67.289 2455.74,-59.467C2460.27,-67.289 2470.58,-71.2 2486.67,-71.2C2509.34,-71.2 2520.67,-63.689 2520.67,-48.667L2520.67,-5.067Z" style="fill-rule:nonzero;"/><path d="M2558.54,-5.067C2558.54,-1.244 2556.4,0.667 2552.14,0.667C2547.78,0.667 2545.6,-1.244 2545.6,-5.067L2545.6,-88.133C2545.6,-91.955 2547.74,-93.866 2552,-93.866C2556.36,-93.866 2558.54,-91.955 2558.54,-88.133L2558.54,-5.067Z" style="fill-rule:nonzero;"/><path d="M2666.53,-39.2L2606.93,-39.2C2596.8,-39.2 2591.73,-36 2591.73,-29.6L2591.73,-19.867C2591.73,-13.822 2597.15,-10.8 2608,-10.8L2650.8,-10.8C2661.29,-10.8 2666.53,-15.378 2666.53,-24.533L2666.53,-39.2ZM2678.8,-20.8C2678.8,-6.933 2668.71,0 2648.53,0L2610.53,0C2589.2,0 2578.53,-6.667 2578.53,-20L2578.53,-29.2C2578.53,-43.067 2588.98,-50 2609.87,-50L2666.4,-50C2665.51,-57.022 2660.22,-60.533 2650.53,-60.533L2634.8,-60.533C2631.69,-60.533 2630.13,-62.355 2630.13,-66C2630.13,-69.466 2631.69,-71.2 2634.8,-71.2L2648.53,-71.2C2668.71,-71.2 2678.8,-64.089 2678.8,-49.867L2678.8,-20.8Z" style="fill-rule:nonzero;"/><path d="M2722.26,-7.2C2722.26,-2.489 2719.2,-0.133 2713.06,-0.133C2707.2,-0.133 2704.26,-2.489 2704.26,-7.2C2704.26,-11.733 2707.2,-14 2713.06,-14C2719.2,-14 2722.26,-11.733 2722.26,-7.2ZM2720.13,-26.667C2720.13,-22.844 2717.77,-20.933 2713.06,-20.933C2708.53,-20.933 2706.26,-22.844 2706.26,-26.667L2706.26,-88C2706.26,-91.911 2708.53,-93.866 2713.06,-93.866C2717.77,-93.866 2720.13,-91.911 2720.13,-88L2720.13,-26.667Z" style="fill-rule:nonzero;"/></g><g transform="matrix(1.3173,0,0,1.3173,-55.1472,-148.707)"><g transform="matrix(1.01971,0,0,1.01971,-21.5109,-376.639)"><path d="M2158.01,1044.94C2158.01,1068.53 2143.8,1080.32 2115.39,1080.32C2088.58,1080.32 2075.18,1068.53 2075.18,1044.94L2075.18,634.82L1761.56,1051.37C1746.55,1070.67 1727.52,1080.32 1704.47,1080.32C1691.6,1080.32 1680.48,1077.91 1671.09,1073.08C1661.71,1068.26 1653.27,1061.02 1645.76,1051.37L1326.51,636.428L1326.51,1044.94C1326.51,1068.53 1313.11,1080.32 1286.31,1080.32C1258.43,1080.32 1244.49,1068.53 1244.49,1044.94L1244.49,558.426C1244.49,526.259 1260.04,510.176 1291.13,510.176C1313.11,510.176 1331.61,520.094 1346.62,539.93L1705.27,997.493L2057.49,535.105C2063.39,527.064 2070.89,520.898 2080.01,516.61C2089.12,512.321 2098.77,510.176 2108.95,510.176C2141.66,510.176 2158.01,526.796 2158.01,560.034L2158.01,1044.94Z" style="fill:rgb(246,157,0);fill-rule:nonzero;"/></g><g transform="matrix(7.7519,0,0,7.7519,489.41,50.2006)"><g><g transform="matrix(1,0,0,1,1.54801,0)"><path d="M31.817,79.766L81.154,79.766" style="fill:none;stroke:rgb(246,157,0);stroke-width:10.84px;"/></g><g transform="matrix(1,0,0,1,1.54801,0)"><path d="M31.817,49.01L81.154,49.01" style="fill:none;stroke:rgb(246,157,0);stroke-width:10.84px;"/></g><g transform="matrix(1,0,0,1,1.54801,0)"><path d="M31.817,18.253L81.154,18.253" style="fill:none;stroke:rgb(246,157,0);stroke-width:10.84px;"/></g><g transform="matrix(1.09118,0,0,0.945455,-1.04299,4.35087)"><path d="M16.041,85.913C14.392,85.913 12.955,85.301 11.729,84.077C10.505,82.853 9.893,81.415 9.893,79.765C9.893,78.116 10.505,76.68 11.729,75.456C12.955,74.232 14.392,73.619 16.041,73.619C17.69,73.619 19.127,74.232 20.352,75.456C21.576,76.68 22.188,78.116 22.188,79.765C22.188,81.415 21.576,82.853 20.352,84.077C19.127,85.301 17.69,85.913 16.041,85.913Z" style="fill:rgb(94,120,153);fill-rule:nonzero;"/></g><g transform="matrix(1.09118,0,0,0.945455,-1.04299,2.67375)"><path d="M16.041,55.156C14.392,55.156 12.955,54.544 11.729,53.32C10.505,52.096 9.893,50.659 9.893,49.009C9.893,47.36 10.505,45.923 11.729,44.699C12.955,43.475 14.392,42.863 16.041,42.863C17.69,42.863 19.127,43.475 20.352,44.699C21.576,45.923 22.188,47.36 22.188,49.009C22.188,50.659 21.576,52.096 20.352,53.32C19.127,54.544 17.69,55.156 16.041,55.156Z" style="fill:rgb(94,120,153);fill-rule:nonzero;"/></g><g transform="matrix(1.09118,0,0,0.945455,-1.04299,0.660327)"><path d="M16.041,24.4C14.392,24.4 12.955,23.788 11.729,22.564C10.505,21.34 9.893,19.902 9.893,18.252C9.893,16.603 10.505,15.167 11.729,13.943C12.955,12.718 14.392,12.106 16.041,12.106C17.69,12.106 19.127,12.718 20.352,13.943C21.576,15.167 22.188,16.603 22.188,18.252C22.188,19.902 21.576,21.34 20.352,22.564C19.127,23.788 17.69,24.4 16.041,24.4Z" style="fill:rgb(94,120,153);fill-rule:nonzero;"/></g></g></g><g transform="matrix(1,0,0,1,-970.123,-354.43)"><path d="M1471.31,912.3C1471.31,1021.63 1399.14,1076.3 1254.83,1076.3L1205.62,1076.3C1182.66,1076.3 1171.18,1064.82 1171.18,1041.86C1171.18,1018.9 1182.66,1007.42 1205.62,1007.42L1254.83,1007.42C1342.29,1007.42 1386.03,977.627 1386.03,918.04L1386.03,535.1C1386.03,511.047 1400.24,499.02 1428.66,499.02C1457.09,499.02 1471.31,511.047 1471.31,535.1L1471.31,912.3Z" style="fill:rgb(246,157,0);fill-rule:nonzero;"/></g></g></g></g></g></svg>