<?xml version="1.0" encoding="UTF-8" standalone="no"?>
<!DOCTYPE svg PUBLIC "-//W3C//DTD SVG 1.1//EN" "http://www.w3.org/Graphics/SVG/1.1/DTD/svg11.dtd">
<svg width="100%" height="100%" viewBox="0 0 2150 872" version="1.1" xmlns="http://www.w3.org/2000/svg" xmlns:xlink="http://www.w3.org/1999/xlink" xml:space="preserve" xmlns:serif="http://www.serif.com/" style="fill-rule:evenodd;clip-rule:evenodd;stroke-linecap:round;stroke-miterlimit:2;">
    <g transform="matrix(1,0,0,1,8,8)">
        <g id="ArtBoard1" transform="matrix(10.2288,0,0,3.80993,-1210.62,-254.597)">
            <rect x="118.355" y="66.824" width="208.539" height="224.482" style="fill:none;"/>
            <g transform="matrix(0.0732005,0,0,0.198511,122.317,277.812)">
                <text x="0px" y="0px" style="font-family:'NeuropolXFree', 'Neuropol X Free';font-size:133.333px;">An<tspan x="256.933px 307.466px 431.733px 555.866px 675.066px 793.866px 854.796px 905.336px 1081.6px 1202.54px 1321.34px 1442.27px 1562px 1681.2px 1742.67px 1793.2px 1848.67px 1967.47px 2028.94px 2079.47px 2140.94px 2259.74px 2378.54px 2534.54px 2572.27px 2693.2px " y="0px 0px 0px 0px 0px 0px 0px 0px 0px 0px 0px 0px 0px 0px 0px 0px 0px 0px 0px 0px 0px 0px 0px 0px 0px 0px "> Event Manager for Joomla!</tspan></text>
            </g>
            <g transform="matrix(0.0977636,0,0,0.262472,106.819,49.7505)">
                <g transform="matrix(1.01971,0,0,1.01971,-21.5109,-376.639)">
                    <g transform="matrix(804.154,0,0,804.154,2248.88,1076.3)">
                    </g>
                    <text x="1177.75px" y="1076.3px" style="font-family:'NeuropolXFree', 'Neuropol X Free';font-size:804.154px;fill:rgb(246,157,0);">M</text>
                </g>
                <g transform="matrix(7.7519,0,0,7.7519,489.41,50.2006)">
                    <g>
                        <g transform="matrix(1,0,0,1,1.54801,0)">
                            <path d="M31.817,79.766L81.154,79.766" style="fill:none;stroke:rgb(246,157,0);stroke-width:10.84px;"/>
                        </g>
                        <g transform="matrix(1,0,0,1,1.54801,0)">
                            <path d="M31.817,49.01L81.154,49.01" style="fill:none;stroke:rgb(246,157,0);stroke-width:10.84px;"/>
                        </g>
                        <g transform="matrix(1,0,0,1,1.54801,0)">
                            <path d="M31.817,18.253L81.154,18.253" style="fill:none;stroke:rgb(246,157,0);stroke-width:10.84px;"/>
                        </g>
                        <g transform="matrix(1.09118,0,0,0.945455,-1.04299,4.35087)">
                            <path d="M16.041,85.913C14.392,85.913 12.955,85.301 11.729,84.077C10.505,82.853 9.893,81.415 9.893,79.765C9.893,78.116 10.505,76.68 11.729,75.456C12.955,74.232 14.392,73.619 16.041,73.619C17.69,73.619 19.127,74.232 20.352,75.456C21.576,76.68 22.188,78.116 22.188,79.765C22.188,81.415 21.576,82.853 20.352,84.077C19.127,85.301 17.69,85.913 16.041,85.913Z" style="fill:rgb(94,120,153);fill-rule:nonzero;"/>
                        </g>
                        <g transform="matrix(1.09118,0,0,0.945455,-1.04299,2.67375)">
                            <path d="M16.041,55.156C14.392,55.156 12.955,54.544 11.729,53.32C10.505,52.096 9.893,50.659 9.893,49.009C9.893,47.36 10.505,45.923 11.729,44.699C12.955,43.475 14.392,42.863 16.041,42.863C17.69,42.863 19.127,43.475 20.352,44.699C21.576,45.923 22.188,47.36 22.188,49.009C22.188,50.659 21.576,52.096 20.352,53.32C19.127,54.544 17.69,55.156 16.041,55.156Z" style="fill:rgb(94,120,153);fill-rule:nonzero;"/>
                        </g>
                        <g transform="matrix(1.09118,0,0,0.945455,-1.04299,0.660327)">
                            <path d="M16.041,24.4C14.392,24.4 12.955,23.788 11.729,22.564C10.505,21.34 9.893,19.902 9.893,18.252C9.893,16.603 10.505,15.167 11.729,13.943C12.955,12.718 14.392,12.106 16.041,12.106C17.69,12.106 19.127,12.718 20.352,13.943C21.576,15.167 22.188,16.603 22.188,18.252C22.188,19.902 21.576,21.34 20.352,22.564C19.127,23.788 17.69,24.4 16.041,24.4Z" style="fill:rgb(94,120,153);fill-rule:nonzero;"/>
                        </g>
                    </g>
                </g>
                <g transform="matrix(1,0,0,1,-970.123,-354.43)">
                    <g transform="matrix(820,0,0,820,1563.97,1076.3)">
                    </g>
                    <text x="1177.75px" y="1076.3px" style="font-family:'NeuropolXFree', 'Neuropol X Free';font-size:820px;fill:rgb(246,157,0);">J</text>
                </g>
            </g>
        </g>
    </g>
</svg>
