<?xml version="1.0" encoding="UTF-8"?>
<svg version="1.1" xmlns="http://www.w3.org/2000/svg" width="72" height="72">
<path d="M0 0 C3.66679392 0.05298835 4.75610884 0.09394007 7.75 2.375 C8.20375 3.035 8.6575 3.695 9.125 4.375 C9.455 3.385 9.785 2.395 10.125 1.375 C12.55004941 0.1624753 14.10882794 0.24174576 16.81835938 0.22973633 C18.27997498 0.22016655 18.27997498 0.22016655 19.77111816 0.21040344 C20.82633667 0.20929062 21.88155518 0.2081778 22.96875 0.20703125 C24.04878296 0.20370285 25.12881592 0.20037445 26.24157715 0.19694519 C28.52807183 0.19187625 30.81457392 0.18953685 33.10107422 0.18969727 C36.61047455 0.18750906 40.11956152 0.16934808 43.62890625 0.15039062 C45.84635309 0.14745712 48.06380142 0.14547204 50.28125 0.14453125 C51.33646851 0.13734573 52.39168701 0.13016022 53.47888184 0.12275696 C54.94049744 0.1273719 54.94049744 0.1273719 56.43164062 0.13208008 C57.29164673 0.13065506 58.15165283 0.12923004 59.03771973 0.12776184 C61.125 0.375 61.125 0.375 63.125 2.375 C63.375 5.875 63.375 5.875 63.125 9.375 C61.125 11.375 61.125 11.375 59.03771973 11.62223816 C57.74771057 11.62010063 57.74771057 11.62010063 56.43164062 11.61791992 C54.97002502 11.62253487 54.97002502 11.62253487 53.47888184 11.62724304 C51.89605408 11.61646477 51.89605408 11.61646477 50.28125 11.60546875 C48.66120056 11.60478142 48.66120056 11.60478142 47.00842285 11.6040802 C44.72191267 11.60105533 42.4354046 11.59316209 40.14892578 11.58081055 C36.63957456 11.56257573 33.13048735 11.56030067 29.62109375 11.56054688 C27.40364354 11.555631 25.18619513 11.54980238 22.96875 11.54296875 C21.91353149 11.54185593 20.85831299 11.5407431 19.77111816 11.53959656 C18.79670776 11.53321671 17.82229736 11.52683685 16.81835938 11.52026367 C15.95835327 11.51645187 15.09834717 11.51264008 14.21228027 11.50871277 C12.125 11.375 12.125 11.375 10.125 10.375 C9.795 9.385 9.465 8.395 9.125 7.375 C8.795 8.365 8.465 9.355 8.125 10.375 C5.52320337 11.67589831 3.5280812 11.54340078 0.625 11.5625 C-0.3546875 11.57667969 -1.334375 11.59085938 -2.34375 11.60546875 C-4.875 11.375 -4.875 11.375 -6.875 9.375 C-7.125 5.875 -7.125 5.875 -6.875 2.375 C-4.38459058 -0.11540942 -3.44345643 0.05108986 0 0 Z " fill="#ED940F" transform="translate(7.875,56.625)"/>
<path d="M0 0 C0.99 0.66 1.98 1.32 3 2 C3 2.99 3 3.98 3 5 C3.66 5 4.32 5 5 5 C5 3.68 5 2.36 5 1 C8.36626209 0.23710098 11.41816898 -0.10888015 14.86621094 -0.03759766 C16.27226593 -0.01229477 16.27226593 -0.01229477 17.70672607 0.01351929 C18.70585022 0.0374173 19.70497437 0.06131531 20.734375 0.0859375 C21.7681427 0.10717682 22.8019104 0.12841614 23.86700439 0.15029907 C26.04567242 0.19646061 28.22428353 0.24538028 30.40283203 0.296875 C33.75150796 0.3750352 37.10027943 0.44202187 40.44921875 0.5078125 C42.56511883 0.55402089 44.68100496 0.60087335 46.796875 0.6484375 C47.80409607 0.66828705 48.81131714 0.6881366 49.84906006 0.70858765 C50.77382141 0.73176056 51.69858276 0.75493347 52.65136719 0.77880859 C53.87783966 0.80664932 53.87783966 0.80664932 55.12908936 0.83505249 C57 1 57 1 58 2 C58.1875 5.4375 58.1875 5.4375 58 9 C56 11 56 11 53.86129761 11.24050903 C52.9774942 11.23606781 52.0936908 11.23162659 51.18310547 11.22705078 C50.18221893 11.22689972 49.1813324 11.22674866 48.15011597 11.22659302 C46.52506638 11.21110916 46.52506638 11.21110916 44.8671875 11.1953125 C43.76021515 11.1924826 42.6532428 11.18965271 41.51272583 11.18673706 C37.96670863 11.17551519 34.42094125 11.15040691 30.875 11.125 C28.47526406 11.1149728 26.07552417 11.1058465 23.67578125 11.09765625 C17.78376849 11.07556932 11.89190209 11.04207207 6 11 C5.67 9.68 5.34 8.36 5 7 C4.34 7 3.68 7 3 7 C2.690625 7.639375 2.38125 8.27875 2.0625 8.9375 C1 11 1 11 0 12 C-7.13306452 13.52016129 -7.13306452 13.52016129 -10.5 11.5 C-12.47864231 8.20226282 -12.29053276 5.77692583 -12 2 C-8.07178453 -0.61881031 -4.56556861 -0.28987737 0 0 Z " fill="#ED940F" transform="translate(13,3)"/>
<path d="M0 0 C2 1.375 2 1.375 3 3 C3 3.66 3 4.32 3 5 C3.66 5 4.32 5 5 5 C5.33 3.68 5.66 2.36 6 1 C13.06576669 0.92404747 20.13142844 0.87144139 27.19750977 0.83520508 C29.60217218 0.82010184 32.00680698 0.79961792 34.41137695 0.77368164 C37.86416431 0.73736649 41.31658804 0.720289 44.76953125 0.70703125 C45.84773636 0.69154739 46.92594147 0.67606354 48.03681946 0.66011047 C49.03763046 0.65988388 50.03844147 0.65965729 51.06958008 0.65942383 C51.95116287 0.65276199 52.83274567 0.64610016 53.74104309 0.63923645 C56 1 56 1 57.81987 2.32597351 C59 4 59 4 58.8125 7.125 C58.544375 8.07375 58.27625 9.0225 58 10 C55.55622022 11.22188989 53.94679321 11.13988153 51.21484375 11.16113281 C50.2204126 11.17074036 49.22598145 11.1803479 48.20141602 11.19024658 C46.58577759 11.1966214 46.58577759 11.1966214 44.9375 11.203125 C43.835271 11.20882507 42.73304199 11.21452515 41.59741211 11.22039795 C39.26384443 11.22985479 36.93026335 11.23638464 34.59667969 11.24023438 C31.0147396 11.24995998 27.4333683 11.28098562 23.8515625 11.3125 C21.58854509 11.31902778 19.32552356 11.32427913 17.0625 11.328125 C15.98540771 11.3404718 14.90831543 11.3528186 13.79858398 11.36553955 C12.30693726 11.3610379 12.30693726 11.3610379 10.78515625 11.35644531 C9.46849976 11.36191376 9.46849976 11.36191376 8.12524414 11.36749268 C7.42391357 11.24622009 6.72258301 11.12494751 6 11 C5.34 10.01 4.68 9.02 4 8 C3.505 8.66 3.01 9.32 2.5 10 C-0.57249249 12.45799399 -2.26644036 12.53776184 -6.09375 12.31640625 C-8.87390192 11.85494661 -10.22997613 11.21252984 -12 9 C-12.5 6 -12.5 6 -12 3 C-8.78632718 -1.01709103 -4.72876504 -0.45035858 0 0 Z " fill="#ED940F" transform="translate(13,30)"/>
<path d="M0 0 C3 2 3 2 3.9375 4.3125 C4 7 4 7 2.5625 9.75 C-0.40401072 12.35474112 -2.2217288 12.95301689 -6.09375 13.19140625 C-8 13 -8 13 -10.5 11.5 C-12.47864231 8.20226282 -12.29053276 5.77692583 -12 2 C-8.07178453 -0.61881031 -4.56556861 -0.28987737 0 0 Z " fill="#5A7596" transform="translate(13,3)"/>
<path d="M0 0 C2.5 2.5 2.5 2.5 4 5 C2.92598892 7.91517292 2.22189824 9.77810176 0 12 C-4.05436831 12.32696519 -6.7947264 12.54237312 -10.5 10.875 C-12 9 -12 9 -12.5 6 C-12 3 -12 3 -10.5 1.125 C-6.96758307 -0.46458762 -3.80156015 -0.87248921 0 0 Z " fill="#5A7596" transform="translate(13,30)"/>
<path d="M0 0 C0.87785156 0.00515625 1.75570313 0.0103125 2.66015625 0.015625 C3.53542969 0.01046875 4.41070312 0.0053125 5.3125 0 C7.72265625 0.265625 7.72265625 0.265625 10.72265625 2.265625 C11.89810781 5.2042539 11.84299514 7.3120043 10.72265625 10.265625 C8.12085962 11.56652331 6.12573745 11.43402578 3.22265625 11.453125 C2.24296875 11.46730469 1.26328125 11.48148438 0.25390625 11.49609375 C-2.27734375 11.265625 -2.27734375 11.265625 -4.27734375 9.265625 C-4.52734375 5.765625 -4.52734375 5.765625 -4.27734375 2.265625 C-2.27734375 0.265625 -2.27734375 0.265625 0 0 Z " fill="#5A7596" transform="translate(5.27734375,56.734375)"/>
<path d="M0 0 C0.66 0 1.32 0 2 0 C2 0.99 2 1.98 2 3 C1.34 3 0.68 3 0 3 C0 2.01 0 1.02 0 0 Z " fill="#5A7596" transform="translate(3,24)"/>
<path d="M0 0 C0.66 0 1.32 0 2 0 C2 0.66 2 1.32 2 2 C1.34 2 0.68 2 0 2 C0 1.34 0 0.68 0 0 Z " fill="#5A7596" transform="translate(7,25)"/>
<path d="" fill="#5B7697" transform="translate(0,0)"/>
</svg>
