<?xml version="1.0" encoding="UTF-8" standalone="no"?>
<!DOCTYPE svg PUBLIC "-//W3C//DTD SVG 1.1//EN" "http://www.w3.org/Graphics/SVG/1.1/DTD/svg11.dtd">
<svg width="100%" height="100%" viewBox="0 0 32 32" version="1.1" xmlns="http://www.w3.org/2000/svg" xmlns:xlink="http://www.w3.org/1999/xlink" xml:space="preserve" xmlns:serif="http://www.serif.com/" style="fill-rule:evenodd;clip-rule:evenodd;stroke-linejoin:round;stroke-miterlimit:2;">
    <g>
        <path d="M19.357,3.938L25.302,14.236L31.248,24.533C31.959,25.766 31.959,27.177 31.248,28.41C30.536,29.643 29.314,30.348 27.89,30.348L4.11,30.348C2.686,30.348 1.464,29.643 0.752,28.41C0.041,27.177 0.041,25.766 0.752,24.533L6.698,14.236L12.643,3.938C13.354,2.706 14.577,2 16,2C17.424,2 18.646,2.706 19.357,3.938" style="fill:rgb(246,157,0);"/>
        <path id="font" d="M17.001,9.829L16.866,20.669L15.144,20.669L14.999,9.829L17.001,9.829ZM14.871,23.968C14.871,23.656 14.965,23.394 15.154,23.179C15.343,22.965 15.624,22.858 15.995,22.858C16.359,22.858 16.64,22.965 16.836,23.179C17.031,23.394 17.129,23.656 17.129,23.968C17.129,24.265 17.031,24.521 16.836,24.735C16.64,24.95 16.359,25.057 15.995,25.057C15.624,25.057 15.343,24.95 15.154,24.735C14.965,24.521 14.871,24.265 14.871,23.968Z" style="fill:white;"/>
        <path d="M17.01,5.292C16.896,5.096 16.756,4.949 16.592,4.854C16.429,4.76 16.23,4.712 16,4.712C15.771,4.712 15.573,4.76 15.41,4.853L15.411,4.854C15.244,4.951 15.103,5.097 14.99,5.292L3.1,25.887C2.987,26.082 2.931,26.278 2.931,26.471C2.931,26.664 2.987,26.86 3.099,27.054L3.1,27.054C3.214,27.252 3.355,27.4 3.518,27.494C3.681,27.588 3.879,27.636 4.11,27.636L27.89,27.636C28.121,27.636 28.319,27.588 28.482,27.494C28.645,27.4 28.786,27.252 28.9,27.054L28.901,27.054C29.013,26.86 29.069,26.664 29.069,26.471C29.069,26.28 29.013,26.084 28.9,25.889L28.9,25.887L17.01,5.292ZM17.123,3.929C17.453,4.119 17.726,4.397 17.936,4.76L29.825,25.353L29.826,25.353C30.036,25.717 30.142,26.093 30.142,26.471C30.142,26.849 30.036,27.223 29.826,27.588L29.826,27.59C29.618,27.951 29.345,28.229 29.014,28.42C28.683,28.611 28.306,28.708 27.89,28.708L4.11,28.708C3.694,28.708 3.317,28.611 2.986,28.42C2.655,28.229 2.382,27.951 2.174,27.59L2.174,27.588C1.964,27.223 1.858,26.849 1.858,26.471C1.858,26.094 1.964,25.719 2.174,25.355L14.064,4.76C14.274,4.396 14.547,4.118 14.874,3.929L14.876,3.929C15.208,3.737 15.584,3.64 16,3.64C16.416,3.64 16.792,3.737 17.123,3.929" style="fill:white;fill-rule:nonzero;"/>
    </g>
</svg>
